<?xml version="1.0" encoding="UTF-8"?><svg xmlns="http://www.w3.org/2000/svg" xmlns:xlink="http://www.w3.org/1999/xlink" fill-opacity="1" color-rendering="auto" color-interpolation="auto" text-rendering="auto" stroke="black" stroke-linecap="square" width="657" stroke-miterlimit="10" shape-rendering="auto" stroke-opacity="1" fill="black" stroke-dasharray="none" font-weight="normal" stroke-width="1" height="372" font-family="'Dialog'" font-style="normal" stroke-linejoin="miter" font-size="12px" stroke-dashoffset="0" image-rendering="auto">
  <!--Generated by ySVG 2.5-->
  <defs id="genericDefs"/>
  <g>
    <defs id="defs1">
      <clipPath clipPathUnits="userSpaceOnUse" id="clipPath1">
        <path d="M0 0 L657 0 L657 372 L0 372 L0 0 Z"/>
      </clipPath>
      <clipPath clipPathUnits="userSpaceOnUse" id="clipPath2">
        <path d="M77 134 L734 134 L734 506 L77 506 L77 134 Z"/>
      </clipPath>
    </defs>
    <g fill="white" text-rendering="geometricPrecision" shape-rendering="geometricPrecision" transform="translate(-77,-134)" stroke="white">
      <rect x="77" width="657" height="372" y="134" clip-path="url(#clipPath2)" stroke="none"/>
    </g>
    <g fill="rgb(255,204,0)" text-rendering="geometricPrecision" shape-rendering="geometricPrecision" transform="matrix(1,0,0,1,-77,-134)" stroke="rgb(255,204,0)">
      <rect x="321" y="149" clip-path="url(#clipPath2)" width="153" rx="4" ry="4" height="65" stroke="none"/>
    </g>
    <g text-rendering="geometricPrecision" stroke-miterlimit="1.45" shape-rendering="geometricPrecision" transform="matrix(1,0,0,1,-77,-134)" stroke-linecap="butt">
      <rect x="321" y="149" clip-path="url(#clipPath2)" fill="none" width="153" rx="4" ry="4" height="65"/>
      <text x="366.167" xml:space="preserve" y="186.2139" clip-path="url(#clipPath2)" font-family="sans-serif" stroke="none">WinformsUI</text>
    </g>
    <g fill="rgb(255,204,0)" text-rendering="geometricPrecision" shape-rendering="geometricPrecision" transform="matrix(1,0,0,1,-77,-134)" stroke="rgb(255,204,0)">
      <rect x="321" y="277" clip-path="url(#clipPath2)" width="153" rx="4" ry="4" height="65" stroke="none"/>
    </g>
    <g text-rendering="geometricPrecision" stroke-miterlimit="1.45" shape-rendering="geometricPrecision" transform="matrix(1,0,0,1,-77,-134)" stroke-linecap="butt">
      <rect x="321" y="277" clip-path="url(#clipPath2)" fill="none" width="153" rx="4" ry="4" height="65"/>
      <text x="357.1494" xml:space="preserve" y="314.2139" clip-path="url(#clipPath2)" font-family="sans-serif" stroke="none">GameHandlers</text>
    </g>
    <g fill="rgb(255,204,0)" text-rendering="geometricPrecision" shape-rendering="geometricPrecision" transform="matrix(1,0,0,1,-77,-134)" stroke="rgb(255,204,0)">
      <rect x="566" y="149" clip-path="url(#clipPath2)" width="153" rx="4" ry="4" height="65" stroke="none"/>
    </g>
    <g text-rendering="geometricPrecision" stroke-miterlimit="1.45" shape-rendering="geometricPrecision" transform="matrix(1,0,0,1,-77,-134)" stroke-linecap="butt">
      <rect x="566" y="149" clip-path="url(#clipPath2)" fill="none" width="153" rx="4" ry="4" height="65"/>
      <text x="605.8174" xml:space="preserve" y="186.2139" clip-path="url(#clipPath2)" font-family="sans-serif" stroke="none">Client.Entities</text>
    </g>
    <g fill="rgb(255,204,0)" text-rendering="geometricPrecision" shape-rendering="geometricPrecision" transform="matrix(1,0,0,1,-77,-134)" stroke="rgb(255,204,0)">
      <rect x="92" y="426" clip-path="url(#clipPath2)" width="153" rx="4" ry="4" height="65" stroke="none"/>
    </g>
    <g text-rendering="geometricPrecision" stroke-miterlimit="1.45" shape-rendering="geometricPrecision" transform="matrix(1,0,0,1,-77,-134)" stroke-linecap="butt">
      <rect x="92" y="426" clip-path="url(#clipPath2)" fill="none" width="153" rx="4" ry="4" height="65"/>
      <text x="131.8203" xml:space="preserve" y="463.2139" clip-path="url(#clipPath2)" font-family="sans-serif" stroke="none">GameObjects</text>
    </g>
    <g fill="rgb(255,204,0)" text-rendering="geometricPrecision" shape-rendering="geometricPrecision" transform="matrix(1,0,0,1,-77,-134)" stroke="rgb(255,204,0)">
      <rect x="566" y="426" clip-path="url(#clipPath2)" width="153" rx="4" ry="4" height="65" stroke="none"/>
    </g>
    <g text-rendering="geometricPrecision" stroke-miterlimit="1.45" shape-rendering="geometricPrecision" transform="matrix(1,0,0,1,-77,-134)" stroke-linecap="butt">
      <rect x="566" y="426" clip-path="url(#clipPath2)" fill="none" width="153" rx="4" ry="4" height="65"/>
      <text x="620.8262" xml:space="preserve" y="463.2139" clip-path="url(#clipPath2)" font-family="sans-serif" stroke="none">GameAi</text>
      <path fill="none" d="M397.5 213.9688 L397.5 268.9877" clip-path="url(#clipPath2)"/>
      <path d="M397.5 276.9877 L402.5 264.9877 L397.5 267.9877 L392.5 264.9877 Z" clip-path="url(#clipPath2)" stroke="none"/>
      <text x="355.4971" xml:space="preserve" y="250.2139" clip-path="url(#clipPath2)" font-family="sans-serif" stroke="none">calls</text>
      <path fill="none" d="M473.9728 181.5 L558.0127 181.5" clip-path="url(#clipPath2)"/>
      <path d="M566.0127 181.5 L554.0127 176.5 L557.0127 181.5 L554.0127 186.5 Z" clip-path="url(#clipPath2)" stroke="none"/>
      <path fill="none" d="M347.546 342.0028 L225.147 421.6424" clip-path="url(#clipPath2)"/>
      <path d="M218.4414 426.0054 L231.2266 423.6518 L225.9852 421.097 L225.7729 415.2699 Z" clip-path="url(#clipPath2)" stroke="none"/>
      <path fill="none" d="M450.9442 342.0028 L582.234 421.8484" clip-path="url(#clipPath2)"/>
      <path d="M589.0692 426.0054 L581.4145 415.498 L581.3796 421.3288 L576.2183 424.042 Z" clip-path="url(#clipPath2)" stroke="none"/>
    </g>
  </g>
</svg>
