<?xml version="1.0" encoding="UTF-8"?><svg xmlns="http://www.w3.org/2000/svg" xmlns:xlink="http://www.w3.org/1999/xlink" fill-opacity="1" color-rendering="auto" color-interpolation="auto" text-rendering="auto" stroke="black" stroke-linecap="square" width="600" stroke-miterlimit="10" shape-rendering="auto" stroke-opacity="1" fill="black" stroke-dasharray="none" font-weight="normal" stroke-width="1" height="331" font-family="'Dialog'" font-style="normal" stroke-linejoin="miter" font-size="12px" stroke-dashoffset="0" image-rendering="auto">
  <!--Generated by ySVG 2.5-->
  <defs id="genericDefs"/>
  <g>
    <defs id="defs1">
      <clipPath clipPathUnits="userSpaceOnUse" id="clipPath1">
        <path d="M0 0 L600 0 L600 331 L0 331 L0 0 Z"/>
      </clipPath>
      <clipPath clipPathUnits="userSpaceOnUse" id="clipPath2">
        <path d="M160 22 L760 22 L760 353 L160 353 L160 22 Z"/>
      </clipPath>
      <clipPath clipPathUnits="userSpaceOnUse" id="clipPath3">
        <path d="M156 18 L756 18 L756 349 L156 349 L156 18 Z"/>
      </clipPath>
    </defs>
    <g fill="white" text-rendering="geometricPrecision" shape-rendering="geometricPrecision" transform="translate(-160,-22)" stroke="white">
      <rect x="160" width="600" height="331" y="22" clip-path="url(#clipPath2)" stroke="none"/>
    </g>
    <g fill="rgb(255,204,0)" text-rendering="geometricPrecision" shape-rendering="geometricPrecision" transform="matrix(1,0,0,1,-160,-22)" stroke="rgb(255,204,0)">
      <circle r="18.5" clip-path="url(#clipPath2)" cx="483.5" cy="55.5" stroke="none"/>
    </g>
    <g text-rendering="geometricPrecision" stroke-miterlimit="1.45" shape-rendering="geometricPrecision" transform="matrix(1,0,0,1,-160,-22)" stroke-linecap="butt">
      <circle fill="none" r="18.5" clip-path="url(#clipPath2)" cx="483.5" cy="55.5"/>
      <text x="475.1592" xml:space="preserve" y="60.2139" clip-path="url(#clipPath2)" font-family="sans-serif" stroke="none">2/6</text>
    </g>
    <g fill="rgb(255,204,0)" text-rendering="geometricPrecision" shape-rendering="geometricPrecision" transform="matrix(1,0,0,1,-160,-22)" stroke="rgb(255,204,0)">
      <circle r="18.5" clip-path="url(#clipPath2)" cx="375.5" cy="90.5" stroke="none"/>
    </g>
    <g text-rendering="geometricPrecision" stroke-miterlimit="1.45" shape-rendering="geometricPrecision" transform="matrix(1,0,0,1,-160,-22)" stroke-linecap="butt">
      <circle fill="none" r="18.5" clip-path="url(#clipPath2)" cx="375.5" cy="90.5"/>
      <text x="367.1592" xml:space="preserve" y="95.2139" clip-path="url(#clipPath2)" font-family="sans-serif" stroke="none">2/4</text>
    </g>
    <g fill="rgb(255,204,0)" text-rendering="geometricPrecision" shape-rendering="geometricPrecision" transform="matrix(1,0,0,1,-160,-22)" stroke="rgb(255,204,0)">
      <circle r="18.5" clip-path="url(#clipPath2)" cx="606.5" cy="90.5" stroke="none"/>
    </g>
    <g text-rendering="geometricPrecision" stroke-miterlimit="1.45" shape-rendering="geometricPrecision" transform="matrix(1,0,0,1,-160,-22)" stroke-linecap="butt">
      <circle fill="none" r="18.5" clip-path="url(#clipPath2)" cx="606.5" cy="90.5"/>
      <text x="598.1592" xml:space="preserve" y="95.2139" clip-path="url(#clipPath2)" font-family="sans-serif" stroke="none">0/2</text>
    </g>
    <g fill="rgb(153,204,255)" text-rendering="geometricPrecision" shape-rendering="geometricPrecision" transform="matrix(1,0,0,1,-160,-22)" stroke="rgb(153,204,255)">
      <circle r="18.5" clip-path="url(#clipPath2)" cx="312.5" cy="147.5" stroke="none"/>
    </g>
    <g text-rendering="geometricPrecision" stroke-miterlimit="1.45" shape-rendering="geometricPrecision" transform="matrix(1,0,0,1,-160,-22)" stroke-linecap="butt">
      <circle fill="none" r="18.5" clip-path="url(#clipPath2)" cx="312.5" cy="147.5"/>
      <text x="304.1592" xml:space="preserve" y="152.2139" clip-path="url(#clipPath2)" font-family="sans-serif" stroke="none">2/4</text>
    </g>
    <g fill="rgb(153,204,255)" text-rendering="geometricPrecision" shape-rendering="geometricPrecision" transform="matrix(1,0,0,1,-160,-22)" stroke="rgb(153,204,255)">
      <circle r="18.5" clip-path="url(#clipPath2)" cx="556.5" cy="147.5" stroke="none"/>
    </g>
    <g text-rendering="geometricPrecision" stroke-miterlimit="1.45" shape-rendering="geometricPrecision" transform="matrix(1,0,0,1,-160,-22)" stroke-linecap="butt">
      <circle fill="none" r="18.5" clip-path="url(#clipPath2)" cx="556.5" cy="147.5"/>
      <text x="548.1592" xml:space="preserve" y="152.2139" clip-path="url(#clipPath2)" font-family="sans-serif" stroke="none">1/1</text>
    </g>
    <g fill="rgb(153,204,255)" text-rendering="geometricPrecision" shape-rendering="geometricPrecision" transform="matrix(1,0,0,1,-160,-22)" stroke="rgb(153,204,255)">
      <circle r="18.5" clip-path="url(#clipPath2)" cx="673.5" cy="147.5" stroke="none"/>
    </g>
    <g text-rendering="geometricPrecision" stroke-miterlimit="1.45" shape-rendering="geometricPrecision" transform="matrix(1,0,0,1,-160,-22)" stroke-linecap="butt">
      <circle fill="none" r="18.5" clip-path="url(#clipPath2)" cx="673.5" cy="147.5"/>
      <text x="665.1592" xml:space="preserve" y="152.2139" clip-path="url(#clipPath2)" font-family="sans-serif" stroke="none">1/1</text>
    </g>
    <g fill="rgb(255,204,0)" text-rendering="geometricPrecision" shape-rendering="geometricPrecision" transform="matrix(1,0,0,1,-160,-22)" stroke="rgb(255,204,0)">
      <circle r="18.5" clip-path="url(#clipPath2)" cx="260.5" cy="214.5" stroke="none"/>
    </g>
    <g text-rendering="geometricPrecision" stroke-miterlimit="1.45" shape-rendering="geometricPrecision" transform="matrix(1,0,0,1,-160,-22)" stroke-linecap="butt">
      <circle fill="none" r="18.5" clip-path="url(#clipPath2)" cx="260.5" cy="214.5"/>
      <text x="252.1592" xml:space="preserve" y="219.2139" clip-path="url(#clipPath2)" font-family="sans-serif" stroke="none">2/3</text>
    </g>
    <g fill="rgb(255,204,0)" text-rendering="geometricPrecision" shape-rendering="geometricPrecision" transform="matrix(1,0,0,1,-160,-22)" stroke="rgb(255,204,0)">
      <circle r="18.5" clip-path="url(#clipPath2)" cx="348.5" cy="214.5" stroke="none"/>
    </g>
    <g text-rendering="geometricPrecision" stroke-miterlimit="1.45" shape-rendering="geometricPrecision" transform="matrix(1,0,0,1,-160,-22)" stroke-linecap="butt">
      <circle fill="none" r="18.5" clip-path="url(#clipPath2)" cx="348.5" cy="214.5"/>
      <text x="340.1592" xml:space="preserve" y="219.2139" clip-path="url(#clipPath2)" font-family="sans-serif" stroke="none">0/1</text>
    </g>
    <g fill="rgb(153,204,255)" text-rendering="geometricPrecision" shape-rendering="geometricPrecision" transform="matrix(1,0,0,1,-160,-22)" stroke="rgb(153,204,255)">
      <circle r="18.5" clip-path="url(#clipPath2)" cx="193.5" cy="281.5" stroke="none"/>
    </g>
    <g text-rendering="geometricPrecision" stroke-miterlimit="1.45" shape-rendering="geometricPrecision" transform="matrix(1,0,0,1,-160,-22)" stroke-linecap="butt">
      <circle fill="none" r="18.5" clip-path="url(#clipPath2)" cx="193.5" cy="281.5"/>
      <text x="185.1592" xml:space="preserve" y="286.2139" clip-path="url(#clipPath2)" font-family="sans-serif" stroke="none">0/1</text>
    </g>
    <g fill="rgb(153,204,255)" text-rendering="geometricPrecision" shape-rendering="geometricPrecision" transform="matrix(1,0,0,1,-160,-22)" stroke="rgb(153,204,255)">
      <circle r="18.5" clip-path="url(#clipPath2)" cx="348.5" cy="281.5" stroke="none"/>
    </g>
    <g text-rendering="geometricPrecision" stroke-miterlimit="1.45" shape-rendering="geometricPrecision" transform="matrix(1,0,0,1,-160,-22)" stroke-linecap="butt">
      <circle fill="none" r="18.5" clip-path="url(#clipPath2)" cx="348.5" cy="281.5"/>
      <text x="340.1592" xml:space="preserve" y="286.2139" clip-path="url(#clipPath2)" font-family="sans-serif" stroke="none">1/1</text>
    </g>
    <g fill="rgb(153,204,255)" text-rendering="geometricPrecision" shape-rendering="geometricPrecision" transform="matrix(1,0,0,1,-160,-22)" stroke="rgb(153,204,255)">
      <circle r="18.5" clip-path="url(#clipPath2)" cx="246.5" cy="281.5" stroke="none"/>
    </g>
    <g text-rendering="geometricPrecision" stroke-miterlimit="1.45" shape-rendering="geometricPrecision" transform="matrix(1,0,0,1,-160,-22)" stroke-linecap="butt">
      <circle fill="none" r="18.5" clip-path="url(#clipPath2)" cx="246.5" cy="281.5"/>
      <text x="238.1592" xml:space="preserve" y="286.2139" clip-path="url(#clipPath2)" font-family="sans-serif" stroke="none">1/1</text>
    </g>
    <g fill="rgb(153,204,255)" text-rendering="geometricPrecision" shape-rendering="geometricPrecision" transform="matrix(1,0,0,1,-160,-22)" stroke="rgb(153,204,255)">
      <circle r="18.5" clip-path="url(#clipPath2)" cx="297.5" cy="281.5" stroke="none"/>
    </g>
    <g text-rendering="geometricPrecision" stroke-miterlimit="1.45" shape-rendering="geometricPrecision" transform="matrix(1,0,0,1,-160,-22)" stroke-linecap="butt">
      <circle fill="none" r="18.5" clip-path="url(#clipPath2)" cx="297.5" cy="281.5"/>
      <text x="289.1592" xml:space="preserve" y="286.2139" clip-path="url(#clipPath2)" font-family="sans-serif" stroke="none">0/1</text>
      <path fill="none" d="M465.9011 61.2034 L400.7093 82.3303" clip-path="url(#clipPath2)"/>
      <path d="M393.0989 84.7966 L406.0559 85.8537 L401.6606 82.022 L402.973 76.3407 Z" clip-path="url(#clipPath2)" stroke="none"/>
      <path fill="none" d="M501.2936 60.5632 L581.0118 83.2473" clip-path="url(#clipPath2)"/>
      <path d="M588.7064 85.4368 L578.533 77.3434 L580.05 82.9736 L575.7961 86.9616 Z" clip-path="url(#clipPath2)" stroke="none"/>
      <path fill="none" d="M361.7816 102.9119 L332.1507 129.7208" clip-path="url(#clipPath2)"/>
      <path d="M326.2184 135.0881 L338.4714 130.7448 L332.8922 129.0499 L331.7623 123.3295 Z" clip-path="url(#clipPath2)" stroke="none"/>
      <path fill="none" d="M594.3004 104.4075 L573.9751 127.5784" clip-path="url(#clipPath2)"/>
      <path d="M568.6996 133.5925 L580.3716 127.8685 L574.6345 126.8266 L572.8541 121.2742 Z" clip-path="url(#clipPath2)" stroke="none"/>
      <path fill="none" d="M620.5907 102.4876 L653.316 130.3286" clip-path="url(#clipPath2)"/>
      <path d="M659.4093 135.5124 L653.5093 123.9284 L652.5544 129.6806 L647.0295 131.5449 Z" clip-path="url(#clipPath2)" stroke="none"/>
      <path fill="none" d="M301.1572 162.1147 L276.7478 193.5654" clip-path="url(#clipPath2)"/>
      <path d="M271.8428 199.8853 L283.1502 193.471 L277.3609 192.7754 L275.2503 187.3398 Z" clip-path="url(#clipPath2)" stroke="none"/>
      <path fill="none" d="M321.2563 163.7965 L335.9571 191.1563" clip-path="url(#clipPath2)"/>
      <path d="M339.7437 198.2035 L338.4683 185.2662 L335.4838 190.2755 L329.6594 189.9993 Z" clip-path="url(#clipPath2)" stroke="none"/>
      <path fill="none" d="M247.4185 227.5815 L212.2383 262.7617" clip-path="url(#clipPath2)"/>
      <path d="M206.5815 268.4185 L218.6023 263.4688 L212.9454 262.0545 L211.5312 256.3977 Z" clip-path="url(#clipPath2)" stroke="none"/>
      <path fill="none" d="M348.5 233 L348.5 255" clip-path="url(#clipPath2)"/>
      <path d="M348.5 263 L353.5 251 L348.5 254 L343.5 251 Z" clip-path="url(#clipPath2)" stroke="none"/>
      <path fill="none" d="M256.7161 232.6089 L251.9202 255.5602" clip-path="url(#clipPath2)"/>
      <path d="M250.284 263.3911 L257.6327 252.6675 L252.1248 254.5814 L247.8441 250.6221 Z" clip-path="url(#clipPath2)" stroke="none"/>
      <path fill="none" d="M269.4433 230.6947 L284.6893 258.3022" clip-path="url(#clipPath2)"/>
      <path d="M288.5567 265.3054 L287.1325 252.3836 L284.2059 257.4269 L278.3787 257.2178 Z" clip-path="url(#clipPath2)" stroke="none"/>
    </g>
    <g fill="rgb(210,210,210)" text-rendering="geometricPrecision" shape-rendering="geometricPrecision" transform="matrix(1,0,0,1,-160,-22) translate(4,4)" stroke="rgb(210,210,210)">
      <rect x="489.5" width="251" height="156.3765" y="177.6235" clip-path="url(#clipPath3)" stroke="none"/>
    </g>
    <g fill="rgb(242,240,216)" text-rendering="geometricPrecision" shape-rendering="geometricPrecision" transform="matrix(1,0,0,1,-160,-22)" stroke="rgb(242,240,216)">
      <rect x="489.5" width="251" height="156.3765" y="177.6235" clip-path="url(#clipPath2)" stroke="none"/>
      <rect x="489.5" y="177.6235" clip-path="url(#clipPath2)" fill="rgb(183,182,158)" width="251" height="22.3765" stroke="none"/>
    </g>
    <g font-size="15px" stroke-linecap="butt" transform="matrix(1,0,0,1,-160,-22)" text-rendering="geometricPrecision" font-family="sans-serif" shape-rendering="geometricPrecision" stroke-miterlimit="1.45">
      <text x="601.7568" xml:space="preserve" y="194.7041" clip-path="url(#clipPath2)" stroke="none">Not simulated nodes</text>
      <rect fill="none" x="489.5" width="251" height="156.3765" y="177.6235" clip-path="url(#clipPath2)"/>
    </g>
    <g fill="rgb(255,204,0)" text-rendering="geometricPrecision" shape-rendering="geometricPrecision" transform="matrix(1,0,0,1,-160,-22)" stroke="rgb(255,204,0)">
      <circle r="18.5" clip-path="url(#clipPath2)" cx="677" cy="233.5" stroke="none"/>
    </g>
    <g text-rendering="geometricPrecision" stroke-miterlimit="1.45" shape-rendering="geometricPrecision" transform="matrix(1,0,0,1,-160,-22)" stroke-linecap="butt">
      <circle fill="none" r="18.5" clip-path="url(#clipPath2)" cx="677" cy="233.5"/>
      <text x="668.6592" xml:space="preserve" y="238.2139" clip-path="url(#clipPath2)" font-family="sans-serif" stroke="none">0/0</text>
    </g>
    <g fill="rgb(255,204,0)" text-rendering="geometricPrecision" shape-rendering="geometricPrecision" transform="matrix(1,0,0,1,-160,-22)" stroke="rgb(255,204,0)">
      <circle r="18.5" clip-path="url(#clipPath2)" cx="560" cy="233.5" stroke="none"/>
    </g>
    <g text-rendering="geometricPrecision" stroke-miterlimit="1.45" shape-rendering="geometricPrecision" transform="matrix(1,0,0,1,-160,-22)" stroke-linecap="butt">
      <circle fill="none" r="18.5" clip-path="url(#clipPath2)" cx="560" cy="233.5"/>
      <text x="551.6592" xml:space="preserve" y="238.2139" clip-path="url(#clipPath2)" font-family="sans-serif" stroke="none">0/0</text>
    </g>
    <g fill="rgb(153,204,255)" text-rendering="geometricPrecision" shape-rendering="geometricPrecision" transform="matrix(1,0,0,1,-160,-22)" stroke="rgb(153,204,255)">
      <circle r="18.5" clip-path="url(#clipPath2)" cx="523" cy="300.5" stroke="none"/>
    </g>
    <g text-rendering="geometricPrecision" stroke-miterlimit="1.45" shape-rendering="geometricPrecision" transform="matrix(1,0,0,1,-160,-22)" stroke-linecap="butt">
      <circle fill="none" r="18.5" clip-path="url(#clipPath2)" cx="523" cy="300.5"/>
      <text x="514.6592" xml:space="preserve" y="305.2139" clip-path="url(#clipPath2)" font-family="sans-serif" stroke="none">0/0</text>
    </g>
    <g fill="rgb(153,204,255)" text-rendering="geometricPrecision" shape-rendering="geometricPrecision" transform="matrix(1,0,0,1,-160,-22)" stroke="rgb(153,204,255)">
      <circle r="18.5" clip-path="url(#clipPath2)" cx="590" cy="300.5" stroke="none"/>
    </g>
    <g text-rendering="geometricPrecision" stroke-miterlimit="1.45" shape-rendering="geometricPrecision" transform="matrix(1,0,0,1,-160,-22)" stroke-linecap="butt">
      <circle fill="none" r="18.5" clip-path="url(#clipPath2)" cx="590" cy="300.5"/>
      <text x="581.6592" xml:space="preserve" y="305.2139" clip-path="url(#clipPath2)" font-family="sans-serif" stroke="none">0/0</text>
    </g>
    <g fill="rgb(153,204,255)" text-rendering="geometricPrecision" shape-rendering="geometricPrecision" transform="matrix(1,0,0,1,-160,-22)" stroke="rgb(153,204,255)">
      <circle r="18.5" clip-path="url(#clipPath2)" cx="640" cy="300.5" stroke="none"/>
    </g>
    <g text-rendering="geometricPrecision" stroke-miterlimit="1.45" shape-rendering="geometricPrecision" transform="matrix(1,0,0,1,-160,-22)" stroke-linecap="butt">
      <circle fill="none" r="18.5" clip-path="url(#clipPath2)" cx="640" cy="300.5"/>
      <text x="631.6592" xml:space="preserve" y="305.2139" clip-path="url(#clipPath2)" font-family="sans-serif" stroke="none">0/0</text>
    </g>
    <g fill="rgb(153,204,255)" text-rendering="geometricPrecision" shape-rendering="geometricPrecision" transform="matrix(1,0,0,1,-160,-22)" stroke="rgb(153,204,255)">
      <circle r="18.5" clip-path="url(#clipPath2)" cx="707" cy="295.5" stroke="none"/>
    </g>
    <g text-rendering="geometricPrecision" stroke-miterlimit="1.45" shape-rendering="geometricPrecision" transform="matrix(1,0,0,1,-160,-22)" stroke-linecap="butt">
      <circle fill="none" r="18.5" clip-path="url(#clipPath2)" cx="707" cy="295.5"/>
      <text x="698.6592" xml:space="preserve" y="300.2139" clip-path="url(#clipPath2)" font-family="sans-serif" stroke="none">0/0</text>
      <path fill="none" d="M674.2523 165.9847 L675.9224 207.0219" clip-path="url(#clipPath2)"/>
      <path d="M676.2477 215.0153 L680.7556 202.8219 L675.8818 206.0227 L670.7639 203.2285 Z" clip-path="url(#clipPath2)" stroke="none"/>
      <path fill="none" d="M557.2523 165.9847 L558.9224 207.0219" clip-path="url(#clipPath2)"/>
      <path d="M559.2477 215.0153 L563.7556 202.8219 L558.8818 206.0227 L553.7639 203.2285 Z" clip-path="url(#clipPath2)" stroke="none"/>
      <path fill="none" d="M551.0567 249.6947 L535.8107 277.3022" clip-path="url(#clipPath2)"/>
      <path d="M531.9433 284.3053 L542.1213 276.2179 L536.2941 276.4269 L533.3675 271.3836 Z" clip-path="url(#clipPath2)" stroke="none"/>
      <path fill="none" d="M567.5603 250.3847 L579.1704 276.3139" clip-path="url(#clipPath2)"/>
      <path d="M582.4397 283.6154 L582.0992 270.6198 L578.7617 275.4012 L572.9723 274.7065 Z" clip-path="url(#clipPath2)" stroke="none"/>
      <path fill="none" d="M668.0567 249.6947 L652.8107 277.3022" clip-path="url(#clipPath2)"/>
      <path d="M648.9433 284.3053 L659.1213 276.2179 L653.2941 276.4269 L650.3675 271.3836 Z" clip-path="url(#clipPath2)" stroke="none"/>
      <path fill="none" d="M685.0579 250.1529 L695.4576 271.6458" clip-path="url(#clipPath2)"/>
      <path d="M698.9421 278.847 L698.2162 265.8673 L695.0221 270.7456 L689.2146 270.223 Z" clip-path="url(#clipPath2)" stroke="none"/>
    </g>
  </g>
</svg>
