<?xml version="1.0" encoding="UTF-8"?><svg xmlns="http://www.w3.org/2000/svg" xmlns:xlink="http://www.w3.org/1999/xlink" fill-opacity="1" color-rendering="auto" color-interpolation="auto" text-rendering="auto" stroke="black" stroke-linecap="square" width="547" stroke-miterlimit="10" shape-rendering="auto" stroke-opacity="1" fill="black" stroke-dasharray="none" font-weight="normal" stroke-width="1" height="293" font-family="'Dialog'" font-style="normal" stroke-linejoin="miter" font-size="12px" stroke-dashoffset="0" image-rendering="auto">
  <!--Generated by ySVG 2.5-->
  <defs id="genericDefs"/>
  <g>
    <defs id="defs1">
      <clipPath clipPathUnits="userSpaceOnUse" id="clipPath1">
        <path d="M0 0 L547 0 L547 293 L0 293 L0 0 Z"/>
      </clipPath>
      <clipPath clipPathUnits="userSpaceOnUse" id="clipPath2">
        <path d="M160 22 L707 22 L707 315 L160 315 L160 22 Z"/>
      </clipPath>
    </defs>
    <g fill="white" text-rendering="geometricPrecision" shape-rendering="geometricPrecision" transform="translate(-160,-22)" stroke="white">
      <rect x="160" width="547" height="293" y="22" clip-path="url(#clipPath2)" stroke="none"/>
    </g>
    <g fill="rgb(255,204,0)" text-rendering="geometricPrecision" shape-rendering="geometricPrecision" transform="matrix(1,0,0,1,-160,-22)" stroke="rgb(255,204,0)">
      <circle r="18.5" clip-path="url(#clipPath2)" cx="483.5" cy="55.5" stroke="none"/>
    </g>
    <g text-rendering="geometricPrecision" stroke-miterlimit="1.45" shape-rendering="geometricPrecision" transform="matrix(1,0,0,1,-160,-22)" stroke-linecap="butt">
      <circle fill="none" r="18.5" clip-path="url(#clipPath2)" cx="483.5" cy="55.5"/>
      <text x="475.1592" xml:space="preserve" y="60.2139" clip-path="url(#clipPath2)" font-family="sans-serif" stroke="none">2/6</text>
    </g>
    <g fill="rgb(255,204,0)" text-rendering="geometricPrecision" shape-rendering="geometricPrecision" transform="matrix(1,0,0,1,-160,-22)" stroke="rgb(255,204,0)">
      <circle r="18.5" clip-path="url(#clipPath2)" cx="375.5" cy="90.5" stroke="none"/>
    </g>
    <g text-rendering="geometricPrecision" stroke-miterlimit="1.45" shape-rendering="geometricPrecision" transform="matrix(1,0,0,1,-160,-22)" stroke-linecap="butt">
      <circle fill="none" r="18.5" clip-path="url(#clipPath2)" cx="375.5" cy="90.5"/>
      <text x="367.1592" xml:space="preserve" y="95.2139" clip-path="url(#clipPath2)" font-family="sans-serif" stroke="none">2/4</text>
    </g>
    <g fill="rgb(255,204,0)" text-rendering="geometricPrecision" shape-rendering="geometricPrecision" transform="matrix(1,0,0,1,-160,-22)" stroke="rgb(255,204,0)">
      <circle r="18.5" clip-path="url(#clipPath2)" cx="606.5" cy="90.5" stroke="none"/>
    </g>
    <g text-rendering="geometricPrecision" stroke-miterlimit="1.45" shape-rendering="geometricPrecision" transform="matrix(1,0,0,1,-160,-22)" stroke-linecap="butt">
      <circle fill="none" r="18.5" clip-path="url(#clipPath2)" cx="606.5" cy="90.5"/>
      <text x="598.1592" xml:space="preserve" y="95.2139" clip-path="url(#clipPath2)" font-family="sans-serif" stroke="none">0/2</text>
    </g>
    <g fill="rgb(153,204,255)" text-rendering="geometricPrecision" shape-rendering="geometricPrecision" transform="matrix(1,0,0,1,-160,-22)" stroke="rgb(153,204,255)">
      <circle r="18.5" clip-path="url(#clipPath2)" cx="312.5" cy="147.5" stroke="none"/>
    </g>
    <g text-rendering="geometricPrecision" stroke-miterlimit="1.45" shape-rendering="geometricPrecision" transform="matrix(1,0,0,1,-160,-22)" stroke-linecap="butt">
      <circle fill="none" r="18.5" clip-path="url(#clipPath2)" cx="312.5" cy="147.5"/>
      <text x="304.1592" xml:space="preserve" y="152.2139" clip-path="url(#clipPath2)" font-family="sans-serif" stroke="none">2/4</text>
    </g>
    <g fill="rgb(153,204,255)" text-rendering="geometricPrecision" shape-rendering="geometricPrecision" transform="matrix(1,0,0,1,-160,-22)" stroke="rgb(153,204,255)">
      <circle r="18.5" clip-path="url(#clipPath2)" cx="556.5" cy="147.5" stroke="none"/>
    </g>
    <g text-rendering="geometricPrecision" stroke-miterlimit="1.45" shape-rendering="geometricPrecision" transform="matrix(1,0,0,1,-160,-22)" stroke-linecap="butt">
      <circle fill="none" r="18.5" clip-path="url(#clipPath2)" cx="556.5" cy="147.5"/>
      <text x="548.1592" xml:space="preserve" y="152.2139" clip-path="url(#clipPath2)" font-family="sans-serif" stroke="none">1/1</text>
    </g>
    <g fill="rgb(153,204,255)" text-rendering="geometricPrecision" shape-rendering="geometricPrecision" transform="matrix(1,0,0,1,-160,-22)" stroke="rgb(153,204,255)">
      <circle r="18.5" clip-path="url(#clipPath2)" cx="673.5" cy="147.5" stroke="none"/>
    </g>
    <g text-rendering="geometricPrecision" stroke-miterlimit="1.45" shape-rendering="geometricPrecision" transform="matrix(1,0,0,1,-160,-22)" stroke-linecap="butt">
      <circle fill="none" r="18.5" clip-path="url(#clipPath2)" cx="673.5" cy="147.5"/>
      <text x="665.1592" xml:space="preserve" y="152.2139" clip-path="url(#clipPath2)" font-family="sans-serif" stroke="none">1/1</text>
    </g>
    <g fill="rgb(255,204,0)" text-rendering="geometricPrecision" shape-rendering="geometricPrecision" transform="matrix(1,0,0,1,-160,-22)" stroke="rgb(255,204,0)">
      <circle r="18.5" clip-path="url(#clipPath2)" cx="260.5" cy="214.5" stroke="none"/>
    </g>
    <g text-rendering="geometricPrecision" stroke-miterlimit="1.45" shape-rendering="geometricPrecision" transform="matrix(1,0,0,1,-160,-22)" stroke-linecap="butt">
      <circle fill="none" r="18.5" clip-path="url(#clipPath2)" cx="260.5" cy="214.5"/>
      <text x="252.1592" xml:space="preserve" y="219.2139" clip-path="url(#clipPath2)" font-family="sans-serif" stroke="none">2/3</text>
    </g>
    <g fill="rgb(255,204,0)" text-rendering="geometricPrecision" shape-rendering="geometricPrecision" transform="matrix(1,0,0,1,-160,-22)" stroke="rgb(255,204,0)">
      <circle r="18.5" clip-path="url(#clipPath2)" cx="348.5" cy="214.5" stroke="none"/>
    </g>
    <g text-rendering="geometricPrecision" stroke-miterlimit="1.45" shape-rendering="geometricPrecision" transform="matrix(1,0,0,1,-160,-22)" stroke-linecap="butt">
      <circle fill="none" r="18.5" clip-path="url(#clipPath2)" cx="348.5" cy="214.5"/>
      <text x="340.1592" xml:space="preserve" y="219.2139" clip-path="url(#clipPath2)" font-family="sans-serif" stroke="none">0/1</text>
    </g>
    <g fill="rgb(153,204,255)" text-rendering="geometricPrecision" shape-rendering="geometricPrecision" transform="matrix(1,0,0,1,-160,-22)" stroke="rgb(153,204,255)">
      <circle r="18.5" clip-path="url(#clipPath2)" cx="193.5" cy="281.5" stroke="none"/>
    </g>
    <g text-rendering="geometricPrecision" stroke-miterlimit="1.45" shape-rendering="geometricPrecision" transform="matrix(1,0,0,1,-160,-22)" stroke-linecap="butt">
      <circle fill="none" r="18.5" clip-path="url(#clipPath2)" cx="193.5" cy="281.5"/>
      <text x="185.1592" xml:space="preserve" y="286.2139" clip-path="url(#clipPath2)" font-family="sans-serif" stroke="none">0/1</text>
    </g>
    <g fill="rgb(153,204,255)" text-rendering="geometricPrecision" shape-rendering="geometricPrecision" transform="matrix(1,0,0,1,-160,-22)" stroke="rgb(153,204,255)">
      <circle r="18.5" clip-path="url(#clipPath2)" cx="348.5" cy="281.5" stroke="none"/>
    </g>
    <g text-rendering="geometricPrecision" stroke-miterlimit="1.45" shape-rendering="geometricPrecision" transform="matrix(1,0,0,1,-160,-22)" stroke-linecap="butt">
      <circle fill="none" r="18.5" clip-path="url(#clipPath2)" cx="348.5" cy="281.5"/>
      <text x="340.1592" xml:space="preserve" y="286.2139" clip-path="url(#clipPath2)" font-family="sans-serif" stroke="none">1/1</text>
    </g>
    <g fill="rgb(153,204,255)" text-rendering="geometricPrecision" shape-rendering="geometricPrecision" transform="matrix(1,0,0,1,-160,-22)" stroke="rgb(153,204,255)">
      <circle r="18.5" clip-path="url(#clipPath2)" cx="246.5" cy="281.5" stroke="none"/>
    </g>
    <g text-rendering="geometricPrecision" stroke-miterlimit="1.45" shape-rendering="geometricPrecision" transform="matrix(1,0,0,1,-160,-22)" stroke-linecap="butt">
      <circle fill="none" r="18.5" clip-path="url(#clipPath2)" cx="246.5" cy="281.5"/>
      <text x="238.1592" xml:space="preserve" y="286.2139" clip-path="url(#clipPath2)" font-family="sans-serif" stroke="none">1/1</text>
    </g>
    <g fill="rgb(153,204,255)" text-rendering="geometricPrecision" shape-rendering="geometricPrecision" transform="matrix(1,0,0,1,-160,-22)" stroke="rgb(153,204,255)">
      <circle r="18.5" clip-path="url(#clipPath2)" cx="297.5" cy="281.5" stroke="none"/>
    </g>
    <g text-rendering="geometricPrecision" stroke-miterlimit="1.45" shape-rendering="geometricPrecision" transform="matrix(1,0,0,1,-160,-22)" stroke-linecap="butt">
      <circle fill="none" r="18.5" clip-path="url(#clipPath2)" cx="297.5" cy="281.5"/>
      <text x="289.1592" xml:space="preserve" y="286.2139" clip-path="url(#clipPath2)" font-family="sans-serif" stroke="none">0/1</text>
    </g>
    <g fill="rgb(255,204,0)" text-rendering="geometricPrecision" shape-rendering="geometricPrecision" transform="matrix(1,0,0,1,-160,-22)" stroke="rgb(255,204,0)">
      <circle r="18.5" clip-path="url(#clipPath2)" cx="556.5" cy="214.5" stroke="none"/>
    </g>
    <g text-rendering="geometricPrecision" stroke-miterlimit="1.45" shape-rendering="geometricPrecision" transform="matrix(1,0,0,1,-160,-22)" stroke-linecap="butt">
      <circle fill="none" r="18.5" clip-path="url(#clipPath2)" cx="556.5" cy="214.5"/>
      <text x="548.1592" xml:space="preserve" y="219.2139" clip-path="url(#clipPath2)" font-family="sans-serif" stroke="none">0/0</text>
    </g>
    <g fill="rgb(153,204,255)" text-rendering="geometricPrecision" shape-rendering="geometricPrecision" transform="matrix(1,0,0,1,-160,-22)" stroke="rgb(153,204,255)">
      <circle r="18.5" clip-path="url(#clipPath2)" cx="519.5" cy="281.5" stroke="none"/>
    </g>
    <g text-rendering="geometricPrecision" stroke-miterlimit="1.45" shape-rendering="geometricPrecision" transform="matrix(1,0,0,1,-160,-22)" stroke-linecap="butt">
      <circle fill="none" r="18.5" clip-path="url(#clipPath2)" cx="519.5" cy="281.5"/>
      <text x="511.1592" xml:space="preserve" y="286.2139" clip-path="url(#clipPath2)" font-family="sans-serif" stroke="none">0/0</text>
    </g>
    <g fill="rgb(153,204,255)" text-rendering="geometricPrecision" shape-rendering="geometricPrecision" transform="matrix(1,0,0,1,-160,-22)" stroke="rgb(153,204,255)">
      <circle r="18.5" clip-path="url(#clipPath2)" cx="586.5" cy="281.5" stroke="none"/>
    </g>
    <g text-rendering="geometricPrecision" stroke-miterlimit="1.45" shape-rendering="geometricPrecision" transform="matrix(1,0,0,1,-160,-22)" stroke-linecap="butt">
      <circle fill="none" r="18.5" clip-path="url(#clipPath2)" cx="586.5" cy="281.5"/>
      <text x="578.1592" xml:space="preserve" y="286.2139" clip-path="url(#clipPath2)" font-family="sans-serif" stroke="none">0/0</text>
      <path fill="none" d="M465.9011 61.2034 L400.7093 82.3303" clip-path="url(#clipPath2)"/>
      <path d="M393.0989 84.7966 L406.0559 85.8537 L401.6606 82.022 L402.973 76.3407 Z" clip-path="url(#clipPath2)" stroke="none"/>
      <path fill="none" d="M501.2936 60.5632 L581.0118 83.2473" clip-path="url(#clipPath2)"/>
      <path d="M588.7064 85.4368 L578.533 77.3434 L580.05 82.9736 L575.7961 86.9616 Z" clip-path="url(#clipPath2)" stroke="none"/>
      <path fill="none" d="M361.7816 102.9119 L332.1507 129.7208" clip-path="url(#clipPath2)"/>
      <path d="M326.2184 135.0881 L338.4714 130.7448 L332.8922 129.0499 L331.7623 123.3295 Z" clip-path="url(#clipPath2)" stroke="none"/>
      <path fill="none" d="M594.3004 104.4075 L573.9751 127.5784" clip-path="url(#clipPath2)"/>
      <path d="M568.6996 133.5925 L580.3716 127.8685 L574.6345 126.8266 L572.8541 121.2742 Z" clip-path="url(#clipPath2)" stroke="none"/>
      <path fill="none" d="M620.5907 102.4876 L653.316 130.3286" clip-path="url(#clipPath2)"/>
      <path d="M659.4093 135.5124 L653.5093 123.9284 L652.5544 129.6806 L647.0295 131.5449 Z" clip-path="url(#clipPath2)" stroke="none"/>
      <path fill="none" d="M301.1572 162.1147 L276.7478 193.5654" clip-path="url(#clipPath2)"/>
      <path d="M271.8428 199.8853 L283.1502 193.471 L277.3609 192.7754 L275.2503 187.3398 Z" clip-path="url(#clipPath2)" stroke="none"/>
      <path fill="none" d="M321.2563 163.7965 L335.9571 191.1563" clip-path="url(#clipPath2)"/>
      <path d="M339.7437 198.2035 L338.4683 185.2662 L335.4838 190.2755 L329.6594 189.9993 Z" clip-path="url(#clipPath2)" stroke="none"/>
      <path fill="none" d="M247.4185 227.5815 L212.2383 262.7617" clip-path="url(#clipPath2)"/>
      <path d="M206.5815 268.4185 L218.6023 263.4688 L212.9454 262.0545 L211.5312 256.3977 Z" clip-path="url(#clipPath2)" stroke="none"/>
      <path fill="none" d="M348.5 233 L348.5 255" clip-path="url(#clipPath2)"/>
      <path d="M348.5 263 L353.5 251 L348.5 254 L343.5 251 Z" clip-path="url(#clipPath2)" stroke="none"/>
      <path fill="none" d="M256.7161 232.6089 L251.9202 255.5602" clip-path="url(#clipPath2)"/>
      <path d="M250.284 263.3911 L257.6327 252.6675 L252.1248 254.5814 L247.8441 250.6221 Z" clip-path="url(#clipPath2)" stroke="none"/>
      <path fill="none" d="M269.4433 230.6947 L284.6893 258.3022" clip-path="url(#clipPath2)"/>
      <path d="M288.5567 265.3054 L287.1325 252.3836 L284.2059 257.4269 L278.3787 257.2178 Z" clip-path="url(#clipPath2)" stroke="none"/>
      <path fill="none" d="M556.5 166 L556.5 188" clip-path="url(#clipPath2)"/>
      <path d="M556.5 196 L561.5 184 L556.5 187 L551.5 184 Z" clip-path="url(#clipPath2)" stroke="none"/>
      <path fill="none" d="M547.5567 230.6947 L532.3107 258.3022" clip-path="url(#clipPath2)"/>
      <path d="M528.4433 265.3053 L538.6213 257.2179 L532.7941 257.4269 L529.8675 252.3836 Z" clip-path="url(#clipPath2)" stroke="none"/>
      <path fill="none" d="M564.0603 231.3847 L575.6704 257.3139" clip-path="url(#clipPath2)"/>
      <path d="M578.9397 264.6154 L578.5992 251.6198 L575.2617 256.4012 L569.4723 255.7064 Z" clip-path="url(#clipPath2)" stroke="none"/>
    </g>
  </g>
</svg>
