<?xml version="1.0" encoding="UTF-8"?><svg xmlns="http://www.w3.org/2000/svg" xmlns:xlink="http://www.w3.org/1999/xlink" fill-opacity="1" color-rendering="auto" color-interpolation="auto" text-rendering="auto" stroke="black" stroke-linecap="square" width="880" stroke-miterlimit="10" shape-rendering="auto" stroke-opacity="1" fill="black" stroke-dasharray="none" font-weight="normal" stroke-width="1" height="422" font-family="'Dialog'" font-style="normal" stroke-linejoin="miter" font-size="12px" stroke-dashoffset="0" image-rendering="auto">
  <!--Generated by ySVG 2.5-->
  <defs id="genericDefs"/>
  <g>
    <defs id="defs1">
      <clipPath clipPathUnits="userSpaceOnUse" id="clipPath1">
        <path d="M0 0 L880 0 L880 422 L0 422 L0 0 Z"/>
      </clipPath>
      <clipPath clipPathUnits="userSpaceOnUse" id="clipPath2">
        <path d="M-86 92 L794 92 L794 514 L-86 514 L-86 92 Z"/>
      </clipPath>
      <clipPath clipPathUnits="userSpaceOnUse" id="clipPath3">
        <path d="M-90 88 L790 88 L790 510 L-90 510 L-90 88 Z"/>
      </clipPath>
    </defs>
    <g fill="white" text-rendering="geometricPrecision" shape-rendering="geometricPrecision" transform="translate(86,-92)" stroke="white">
      <rect x="-86" width="880" height="422" y="92" clip-path="url(#clipPath2)" stroke="none"/>
    </g>
    <g fill="rgb(210,210,210)" text-rendering="geometricPrecision" shape-rendering="geometricPrecision" transform="matrix(1,0,0,1,86,-92) translate(4,4)" stroke="rgb(210,210,210)">
      <rect x="-70.0352" width="844.1694" height="148.7529" y="345.6235" clip-path="url(#clipPath3)" stroke="none"/>
    </g>
    <g fill="rgb(242,240,216)" text-rendering="geometricPrecision" shape-rendering="geometricPrecision" transform="matrix(1,0,0,1,86,-92)" stroke="rgb(242,240,216)">
      <rect x="-70.0352" width="844.1694" height="148.7529" y="345.6235" clip-path="url(#clipPath2)" stroke="none"/>
      <rect x="-70.0352" y="345.6235" clip-path="url(#clipPath2)" fill="rgb(183,182,158)" width="844.1694" height="22.3765" stroke="none"/>
    </g>
    <g font-size="15px" stroke-linecap="butt" transform="matrix(1,0,0,1,86,-92)" text-rendering="geometricPrecision" font-family="sans-serif" shape-rendering="geometricPrecision" stroke-miterlimit="1.45">
      <text x="647.0513" xml:space="preserve" y="362.7041" clip-path="url(#clipPath2)" stroke="none">Linearizované kolo</text>
      <rect fill="none" x="-70.0352" width="844.1694" height="148.7529" y="345.6235" clip-path="url(#clipPath2)"/>
    </g>
    <g fill="rgb(210,210,210)" text-rendering="geometricPrecision" shape-rendering="geometricPrecision" transform="matrix(1,0,0,1,86,-92) translate(4,4)" stroke="rgb(210,210,210)">
      <rect x="-54" width="339" height="91.3765" y="383" clip-path="url(#clipPath3)" stroke="none"/>
    </g>
    <g fill="rgb(222,220,196)" text-rendering="geometricPrecision" shape-rendering="geometricPrecision" transform="matrix(1,0,0,1,86,-92)" stroke="rgb(222,220,196)">
      <rect x="-54" width="339" height="91.3765" y="383" clip-path="url(#clipPath2)" stroke="none"/>
      <rect x="-54" y="383" clip-path="url(#clipPath2)" fill="rgb(183,182,158)" width="339" height="22.3765" stroke="none"/>
    </g>
    <g font-size="15px" stroke-linecap="butt" transform="matrix(1,0,0,1,86,-92)" text-rendering="geometricPrecision" font-family="sans-serif" shape-rendering="geometricPrecision" stroke-miterlimit="1.45">
      <text x="203.7886" xml:space="preserve" y="400.0806" clip-path="url(#clipPath2)" stroke="none">Deploy fáze</text>
      <rect fill="none" x="-54" width="339" height="91.3765" y="383" clip-path="url(#clipPath2)"/>
    </g>
    <g fill="rgb(255,204,0)" text-rendering="geometricPrecision" shape-rendering="geometricPrecision" transform="matrix(1,0,0,1,86,-92)" stroke="rgb(255,204,0)">
      <rect x="-39" y="420.3765" clip-path="url(#clipPath2)" width="72" rx="4" ry="4" height="39" stroke="none"/>
    </g>
    <g text-rendering="geometricPrecision" stroke-miterlimit="1.45" shape-rendering="geometricPrecision" transform="matrix(1,0,0,1,86,-92)" stroke-linecap="butt">
      <rect x="-39" y="420.3765" clip-path="url(#clipPath2)" fill="none" width="72" rx="4" ry="4" height="39"/>
      <text x="-36.0176" xml:space="preserve" y="437.2397" clip-path="url(#clipPath2)" font-family="sans-serif" stroke="none">Deploy akce</text>
      <text x="-19.0049" xml:space="preserve" y="451.9409" clip-path="url(#clipPath2)" font-family="sans-serif" stroke="none">Hráč1</text>
    </g>
    <g fill="rgb(255,204,0)" text-rendering="geometricPrecision" shape-rendering="geometricPrecision" transform="matrix(1,0,0,1,86,-92)" stroke="rgb(255,204,0)">
      <rect x="126" y="420.3765" clip-path="url(#clipPath2)" width="67" rx="4" ry="4" height="39" stroke="none"/>
    </g>
    <g text-rendering="geometricPrecision" stroke-miterlimit="1.45" shape-rendering="geometricPrecision" transform="matrix(1,0,0,1,86,-92)" stroke-linecap="butt">
      <rect x="126" y="420.3765" clip-path="url(#clipPath2)" fill="none" width="67" rx="4" ry="4" height="39"/>
      <text x="126.4824" xml:space="preserve" y="437.2397" clip-path="url(#clipPath2)" font-family="sans-serif" stroke="none">Deploy akce</text>
      <text x="143.4951" xml:space="preserve" y="451.9409" clip-path="url(#clipPath2)" font-family="sans-serif" stroke="none">Hráč1</text>
    </g>
    <g fill="rgb(255,204,0)" text-rendering="geometricPrecision" shape-rendering="geometricPrecision" transform="matrix(1,0,0,1,86,-92)" stroke="rgb(255,204,0)">
      <rect x="41" y="420.3765" clip-path="url(#clipPath2)" width="72" rx="4" ry="4" height="39" stroke="none"/>
    </g>
    <g text-rendering="geometricPrecision" stroke-miterlimit="1.45" shape-rendering="geometricPrecision" transform="matrix(1,0,0,1,86,-92)" stroke-linecap="butt">
      <rect x="41" y="420.3765" clip-path="url(#clipPath2)" fill="none" width="72" rx="4" ry="4" height="39"/>
      <text x="43.9824" xml:space="preserve" y="437.2397" clip-path="url(#clipPath2)" font-family="sans-serif" stroke="none">Deploy akce</text>
      <text x="60.9951" xml:space="preserve" y="451.9409" clip-path="url(#clipPath2)" font-family="sans-serif" stroke="none">Hráč2</text>
    </g>
    <g fill="rgb(255,204,0)" text-rendering="geometricPrecision" shape-rendering="geometricPrecision" transform="matrix(1,0,0,1,86,-92)" stroke="rgb(255,204,0)">
      <rect x="198" y="420.3765" clip-path="url(#clipPath2)" width="72" rx="4" ry="4" height="39" stroke="none"/>
    </g>
    <g text-rendering="geometricPrecision" stroke-miterlimit="1.45" shape-rendering="geometricPrecision" transform="matrix(1,0,0,1,86,-92)" stroke-linecap="butt">
      <rect x="198" y="420.3765" clip-path="url(#clipPath2)" fill="none" width="72" rx="4" ry="4" height="39"/>
      <text x="200.9824" xml:space="preserve" y="437.2397" clip-path="url(#clipPath2)" font-family="sans-serif" stroke="none">Deploy akce</text>
      <text x="217.9951" xml:space="preserve" y="451.9409" clip-path="url(#clipPath2)" font-family="sans-serif" stroke="none">Hráč2</text>
    </g>
    <g fill="rgb(210,210,210)" text-rendering="geometricPrecision" shape-rendering="geometricPrecision" transform="matrix(1,0,0,1,86,-92) translate(4,4)" stroke="rgb(210,210,210)">
      <rect x="352.1382" width="351.8618" height="91.3765" y="383" clip-path="url(#clipPath3)" stroke="none"/>
    </g>
    <g fill="rgb(222,220,196)" text-rendering="geometricPrecision" shape-rendering="geometricPrecision" transform="matrix(1,0,0,1,86,-92)" stroke="rgb(222,220,196)">
      <rect x="352.1382" width="351.8618" height="91.3765" y="383" clip-path="url(#clipPath2)" stroke="none"/>
      <rect x="352.1382" y="383" clip-path="url(#clipPath2)" fill="rgb(183,182,158)" width="351.8618" height="22.3765" stroke="none"/>
    </g>
    <g font-size="15px" stroke-linecap="butt" transform="matrix(1,0,0,1,86,-92)" text-rendering="geometricPrecision" font-family="sans-serif" shape-rendering="geometricPrecision" stroke-miterlimit="1.45">
      <text x="627.7983" xml:space="preserve" y="400.0806" clip-path="url(#clipPath2)" stroke="none">Attack fáze</text>
      <rect fill="none" x="352.1382" width="351.8618" height="91.3765" y="383" clip-path="url(#clipPath2)"/>
    </g>
    <g fill="rgb(255,204,0)" text-rendering="geometricPrecision" shape-rendering="geometricPrecision" transform="matrix(1,0,0,1,86,-92)" stroke="rgb(255,204,0)">
      <rect x="367.1382" y="420.3765" clip-path="url(#clipPath2)" width="77.8618" rx="4" ry="4" height="39" stroke="none"/>
    </g>
    <g text-rendering="geometricPrecision" stroke-miterlimit="1.45" shape-rendering="geometricPrecision" transform="matrix(1,0,0,1,86,-92)" stroke-linecap="butt">
      <rect x="367.1382" y="420.3765" clip-path="url(#clipPath2)" fill="none" width="77.8618" rx="4" ry="4" height="39"/>
      <text x="375.0554" xml:space="preserve" y="437.2397" clip-path="url(#clipPath2)" font-family="sans-serif" stroke="none">Attack akce</text>
      <text x="390.0642" xml:space="preserve" y="451.9409" clip-path="url(#clipPath2)" font-family="sans-serif" stroke="none">Hráč1</text>
    </g>
    <g fill="rgb(255,204,0)" text-rendering="geometricPrecision" shape-rendering="geometricPrecision" transform="matrix(1,0,0,1,86,-92)" stroke="rgb(255,204,0)">
      <rect x="617" y="420.3765" clip-path="url(#clipPath2)" width="72" rx="4" ry="4" height="39" stroke="none"/>
    </g>
    <g text-rendering="geometricPrecision" stroke-miterlimit="1.45" shape-rendering="geometricPrecision" transform="matrix(1,0,0,1,86,-92)" stroke-linecap="butt">
      <rect x="617" y="420.3765" clip-path="url(#clipPath2)" fill="none" width="72" rx="4" ry="4" height="39"/>
      <text x="621.9863" xml:space="preserve" y="437.2397" clip-path="url(#clipPath2)" font-family="sans-serif" stroke="none">Attack akce</text>
      <text x="636.9951" xml:space="preserve" y="451.9409" clip-path="url(#clipPath2)" font-family="sans-serif" stroke="none">Hráč1</text>
    </g>
    <g fill="rgb(255,204,0)" text-rendering="geometricPrecision" shape-rendering="geometricPrecision" transform="matrix(1,0,0,1,86,-92)" stroke="rgb(255,204,0)">
      <rect x="452" y="420.3765" clip-path="url(#clipPath2)" width="72" rx="4" ry="4" height="39" stroke="none"/>
    </g>
    <g text-rendering="geometricPrecision" stroke-miterlimit="1.45" shape-rendering="geometricPrecision" transform="matrix(1,0,0,1,86,-92)" stroke-linecap="butt">
      <rect x="452" y="420.3765" clip-path="url(#clipPath2)" fill="none" width="72" rx="4" ry="4" height="39"/>
      <text x="456.9863" xml:space="preserve" y="437.2397" clip-path="url(#clipPath2)" font-family="sans-serif" stroke="none">Attack akce</text>
      <text x="471.9951" xml:space="preserve" y="451.9409" clip-path="url(#clipPath2)" font-family="sans-serif" stroke="none">Hráč2</text>
    </g>
    <g fill="rgb(255,204,0)" text-rendering="geometricPrecision" shape-rendering="geometricPrecision" transform="matrix(1,0,0,1,86,-92)" stroke="rgb(255,204,0)">
      <rect x="542" y="420.3765" clip-path="url(#clipPath2)" width="67" rx="4" ry="4" height="39" stroke="none"/>
    </g>
    <g text-rendering="geometricPrecision" stroke-miterlimit="1.45" shape-rendering="geometricPrecision" transform="matrix(1,0,0,1,86,-92)" stroke-linecap="butt">
      <rect x="542" y="420.3765" clip-path="url(#clipPath2)" fill="none" width="67" rx="4" ry="4" height="39"/>
      <text x="544.4863" xml:space="preserve" y="437.2397" clip-path="url(#clipPath2)" font-family="sans-serif" stroke="none">Attack akce</text>
      <text x="559.4951" xml:space="preserve" y="451.9409" clip-path="url(#clipPath2)" font-family="sans-serif" stroke="none">Hráč2</text>
    </g>
    <g fill="rgb(210,210,210)" text-rendering="geometricPrecision" shape-rendering="geometricPrecision" transform="matrix(1,0,0,1,86,-92) translate(4,4)" stroke="rgb(210,210,210)">
      <rect x="-69.0176" width="837.1382" height="219.1294" y="107.8706" clip-path="url(#clipPath3)" stroke="none"/>
    </g>
    <g fill="rgb(242,240,216)" text-rendering="geometricPrecision" shape-rendering="geometricPrecision" transform="matrix(1,0,0,1,86,-92)" stroke="rgb(242,240,216)">
      <rect x="-69.0176" width="837.1382" height="219.1294" y="107.8706" clip-path="url(#clipPath2)" stroke="none"/>
      <rect x="-69.0176" y="107.8706" clip-path="url(#clipPath2)" fill="rgb(183,182,158)" width="837.1382" height="22.3765" stroke="none"/>
    </g>
    <g font-size="15px" stroke-linecap="butt" transform="matrix(1,0,0,1,86,-92)" text-rendering="geometricPrecision" font-family="sans-serif" shape-rendering="geometricPrecision" stroke-miterlimit="1.45">
      <text x="736.0986" xml:space="preserve" y="124.9512" clip-path="url(#clipPath2)" stroke="none">Kolo</text>
      <rect fill="none" x="-69.0176" width="837.1382" height="219.1294" y="107.8706" clip-path="url(#clipPath2)"/>
    </g>
    <g fill="rgb(210,210,210)" text-rendering="geometricPrecision" shape-rendering="geometricPrecision" transform="matrix(1,0,0,1,86,-92) translate(4,4)" stroke="rgb(210,210,210)">
      <rect x="-54.0176" width="391.5176" height="160.7529" y="146.2471" clip-path="url(#clipPath3)" stroke="none"/>
    </g>
    <g fill="rgb(222,220,196)" text-rendering="geometricPrecision" shape-rendering="geometricPrecision" transform="matrix(1,0,0,1,86,-92)" stroke="rgb(222,220,196)">
      <rect x="-54.0176" width="391.5176" height="160.7529" y="146.2471" clip-path="url(#clipPath2)" stroke="none"/>
      <rect x="-54.0176" y="146.2471" clip-path="url(#clipPath2)" fill="rgb(183,182,158)" width="391.5176" height="22.3765" stroke="none"/>
    </g>
    <g font-size="15px" stroke-linecap="butt" transform="matrix(1,0,0,1,86,-92)" text-rendering="geometricPrecision" font-family="sans-serif" shape-rendering="geometricPrecision" stroke-miterlimit="1.45">
      <text x="265.4731" xml:space="preserve" y="163.3276" clip-path="url(#clipPath2)" stroke="none">Tah Hráč1</text>
      <rect fill="none" x="-54.0176" width="391.5176" height="160.7529" y="146.2471" clip-path="url(#clipPath2)"/>
    </g>
    <g fill="rgb(210,210,210)" text-rendering="geometricPrecision" shape-rendering="geometricPrecision" transform="matrix(1,0,0,1,86,-92) translate(4,4)" stroke="rgb(210,210,210)">
      <rect x="-39.0176" width="175.0352" height="96.3765" y="183.6235" clip-path="url(#clipPath3)" stroke="none"/>
    </g>
    <g fill="rgb(202,200,176)" text-rendering="geometricPrecision" shape-rendering="geometricPrecision" transform="matrix(1,0,0,1,86,-92)" stroke="rgb(202,200,176)">
      <rect x="-39.0176" width="175.0352" height="96.3765" y="183.6235" clip-path="url(#clipPath2)" stroke="none"/>
      <rect x="-39.0176" y="183.6235" clip-path="url(#clipPath2)" fill="rgb(183,182,158)" width="175.0352" height="22.3765" stroke="none"/>
    </g>
    <g font-size="15px" stroke-linecap="butt" transform="matrix(1,0,0,1,86,-92)" text-rendering="geometricPrecision" font-family="sans-serif" shape-rendering="geometricPrecision" stroke-miterlimit="1.45">
      <text x="54.8062" xml:space="preserve" y="200.7041" clip-path="url(#clipPath2)" stroke="none">Deploy fáze</text>
      <rect fill="none" x="-39.0176" width="175.0352" height="96.3765" y="183.6235" clip-path="url(#clipPath2)"/>
    </g>
    <g fill="rgb(255,204,0)" text-rendering="geometricPrecision" shape-rendering="geometricPrecision" transform="matrix(1,0,0,1,86,-92)" stroke="rgb(255,204,0)">
      <rect x="-22.5" y="221" clip-path="url(#clipPath2)" width="67" rx="4" ry="4" height="44" stroke="none"/>
    </g>
    <g text-rendering="geometricPrecision" stroke-miterlimit="1.45" shape-rendering="geometricPrecision" transform="matrix(1,0,0,1,86,-92)" stroke-linecap="butt">
      <rect x="-22.5" y="221" clip-path="url(#clipPath2)" fill="none" width="67" rx="4" ry="4" height="44"/>
      <text x="-22.0176" xml:space="preserve" y="240.3633" clip-path="url(#clipPath2)" font-family="sans-serif" stroke="none">Deploy akce</text>
      <text x="-5.0049" xml:space="preserve" y="255.0645" clip-path="url(#clipPath2)" font-family="sans-serif" stroke="none">Hráč1</text>
    </g>
    <g fill="rgb(255,204,0)" text-rendering="geometricPrecision" shape-rendering="geometricPrecision" transform="matrix(1,0,0,1,86,-92)" stroke="rgb(255,204,0)">
      <rect x="52.5" y="221" clip-path="url(#clipPath2)" width="67" rx="4" ry="4" height="44" stroke="none"/>
    </g>
    <g text-rendering="geometricPrecision" stroke-miterlimit="1.45" shape-rendering="geometricPrecision" transform="matrix(1,0,0,1,86,-92)" stroke-linecap="butt">
      <rect x="52.5" y="221" clip-path="url(#clipPath2)" fill="none" width="67" rx="4" ry="4" height="44"/>
      <text x="52.9824" xml:space="preserve" y="240.3633" clip-path="url(#clipPath2)" font-family="sans-serif" stroke="none">Deploy akce</text>
      <text x="69.9951" xml:space="preserve" y="255.0645" clip-path="url(#clipPath2)" font-family="sans-serif" stroke="none">Hráč1</text>
      <path fill="none" d="M9.438 264.9659 L-1.0448 412.3814" clip-path="url(#clipPath2)"/>
      <path d="M-1.6123 420.3613 L4.2263 408.7462 L-0.9739 411.384 L-5.7485 408.0369 Z" clip-path="url(#clipPath2)" stroke="none"/>
      <path fill="none" d="M94.2095 264.99 L149.4174 412.8692" clip-path="url(#clipPath2)"/>
      <path d="M152.2154 420.364 L152.7026 407.3731 L149.0676 411.9324 L143.3342 410.8706 Z" clip-path="url(#clipPath2)" stroke="none"/>
    </g>
    <g fill="rgb(210,210,210)" text-rendering="geometricPrecision" shape-rendering="geometricPrecision" transform="matrix(1,0,0,1,86,-92) translate(4,4)" stroke="rgb(210,210,210)">
      <rect x="149.5" width="169" height="96.3765" y="183.6235" clip-path="url(#clipPath3)" stroke="none"/>
    </g>
    <g fill="rgb(202,200,176)" text-rendering="geometricPrecision" shape-rendering="geometricPrecision" transform="matrix(1,0,0,1,86,-92)" stroke="rgb(202,200,176)">
      <rect x="149.5" width="169" height="96.3765" y="183.6235" clip-path="url(#clipPath2)" stroke="none"/>
      <rect x="149.5" y="183.6235" clip-path="url(#clipPath2)" fill="rgb(183,182,158)" width="169" height="22.3765" stroke="none"/>
    </g>
    <g font-size="15px" stroke-linecap="butt" transform="matrix(1,0,0,1,86,-92)" text-rendering="geometricPrecision" font-family="sans-serif" shape-rendering="geometricPrecision" stroke-miterlimit="1.45">
      <text x="242.2983" xml:space="preserve" y="200.7041" clip-path="url(#clipPath2)" stroke="none">Attack fáze</text>
      <rect fill="none" x="149.5" width="169" height="96.3765" y="183.6235" clip-path="url(#clipPath2)"/>
    </g>
    <g fill="rgb(255,204,0)" text-rendering="geometricPrecision" shape-rendering="geometricPrecision" transform="matrix(1,0,0,1,86,-92)" stroke="rgb(255,204,0)">
      <rect x="164.5" y="221" clip-path="url(#clipPath2)" width="67" rx="4" ry="4" height="44" stroke="none"/>
    </g>
    <g text-rendering="geometricPrecision" stroke-miterlimit="1.45" shape-rendering="geometricPrecision" transform="matrix(1,0,0,1,86,-92)" stroke-linecap="butt">
      <rect x="164.5" y="221" clip-path="url(#clipPath2)" fill="none" width="67" rx="4" ry="4" height="44"/>
      <text x="166.9863" xml:space="preserve" y="240.3633" clip-path="url(#clipPath2)" font-family="sans-serif" stroke="none">Attack akce</text>
      <text x="181.9951" xml:space="preserve" y="255.0645" clip-path="url(#clipPath2)" font-family="sans-serif" stroke="none">Hráč1</text>
    </g>
    <g fill="rgb(255,204,0)" text-rendering="geometricPrecision" shape-rendering="geometricPrecision" transform="matrix(1,0,0,1,86,-92)" stroke="rgb(255,204,0)">
      <rect x="236.5" y="221" clip-path="url(#clipPath2)" width="67" rx="4" ry="4" height="44" stroke="none"/>
    </g>
    <g text-rendering="geometricPrecision" stroke-miterlimit="1.45" shape-rendering="geometricPrecision" transform="matrix(1,0,0,1,86,-92)" stroke-linecap="butt">
      <rect x="236.5" y="221" clip-path="url(#clipPath2)" fill="none" width="67" rx="4" ry="4" height="44"/>
      <text x="238.9863" xml:space="preserve" y="240.3633" clip-path="url(#clipPath2)" font-family="sans-serif" stroke="none">Attack akce</text>
      <text x="253.9951" xml:space="preserve" y="255.0645" clip-path="url(#clipPath2)" font-family="sans-serif" stroke="none">Hráč1</text>
      <path fill="none" d="M221.2401 264.99 L379.6589 414.8869" clip-path="url(#clipPath2)"/>
      <path d="M385.4699 420.3853 L380.1899 408.5059 L378.9325 414.1996 L373.3169 415.7696 Z" clip-path="url(#clipPath2)" stroke="none"/>
      <path fill="none" d="M302.3326 263.8364 L538.5976 416.0951" clip-path="url(#clipPath2)"/>
      <path d="M545.3222 420.4287 L537.9438 409.7254 L537.757 415.5534 L532.5269 418.1312 Z" clip-path="url(#clipPath2)" stroke="none"/>
    </g>
    <g fill="rgb(210,210,210)" text-rendering="geometricPrecision" shape-rendering="geometricPrecision" transform="matrix(1,0,0,1,86,-92) translate(4,4)" stroke="rgb(210,210,210)">
      <rect x="348.6382" width="400.4824" height="161.7529" y="145.2471" clip-path="url(#clipPath3)" stroke="none"/>
    </g>
    <g fill="rgb(222,220,196)" text-rendering="geometricPrecision" shape-rendering="geometricPrecision" transform="matrix(1,0,0,1,86,-92)" stroke="rgb(222,220,196)">
      <rect x="348.6382" width="400.4824" height="161.7529" y="145.2471" clip-path="url(#clipPath2)" stroke="none"/>
      <rect x="348.6382" y="145.2471" clip-path="url(#clipPath2)" fill="rgb(183,182,158)" width="400.4824" height="22.3765" stroke="none"/>
    </g>
    <g font-size="15px" stroke-linecap="butt" transform="matrix(1,0,0,1,86,-92)" text-rendering="geometricPrecision" font-family="sans-serif" shape-rendering="geometricPrecision" stroke-miterlimit="1.45">
      <text x="677.0938" xml:space="preserve" y="162.3276" clip-path="url(#clipPath2)" stroke="none">Tah Hráč2</text>
      <rect fill="none" x="348.6382" width="400.4824" height="161.7529" y="145.2471" clip-path="url(#clipPath2)"/>
    </g>
    <g fill="rgb(210,210,210)" text-rendering="geometricPrecision" shape-rendering="geometricPrecision" transform="matrix(1,0,0,1,86,-92) translate(4,4)" stroke="rgb(210,210,210)">
      <rect x="363.6382" width="183" height="96.3765" y="183.6235" clip-path="url(#clipPath3)" stroke="none"/>
    </g>
    <g fill="rgb(202,200,176)" text-rendering="geometricPrecision" shape-rendering="geometricPrecision" transform="matrix(1,0,0,1,86,-92)" stroke="rgb(202,200,176)">
      <rect x="363.6382" width="183" height="96.3765" y="183.6235" clip-path="url(#clipPath2)" stroke="none"/>
      <rect x="363.6382" y="183.6235" clip-path="url(#clipPath2)" fill="rgb(183,182,158)" width="183" height="22.3765" stroke="none"/>
    </g>
    <g font-size="15px" stroke-linecap="butt" transform="matrix(1,0,0,1,86,-92)" text-rendering="geometricPrecision" font-family="sans-serif" shape-rendering="geometricPrecision" stroke-miterlimit="1.45">
      <text x="465.4268" xml:space="preserve" y="200.7041" clip-path="url(#clipPath2)" stroke="none">Deploy fáze</text>
      <rect fill="none" x="363.6382" width="183" height="96.3765" y="183.6235" clip-path="url(#clipPath2)"/>
    </g>
    <g fill="rgb(255,204,0)" text-rendering="geometricPrecision" shape-rendering="geometricPrecision" transform="matrix(1,0,0,1,86,-92)" stroke="rgb(255,204,0)">
      <rect x="381.1382" y="221" clip-path="url(#clipPath2)" width="72" rx="4" ry="4" height="44" stroke="none"/>
    </g>
    <g text-rendering="geometricPrecision" stroke-miterlimit="1.45" shape-rendering="geometricPrecision" transform="matrix(1,0,0,1,86,-92)" stroke-linecap="butt">
      <rect x="381.1382" y="221" clip-path="url(#clipPath2)" fill="none" width="72" rx="4" ry="4" height="44"/>
      <text x="384.1206" xml:space="preserve" y="240.3633" clip-path="url(#clipPath2)" font-family="sans-serif" stroke="none">Deploy akce</text>
      <text x="401.1333" xml:space="preserve" y="255.0645" clip-path="url(#clipPath2)" font-family="sans-serif" stroke="none">Hráč2</text>
    </g>
    <g fill="rgb(255,204,0)" text-rendering="geometricPrecision" shape-rendering="geometricPrecision" transform="matrix(1,0,0,1,86,-92)" stroke="rgb(255,204,0)">
      <rect x="459.6382" y="221" clip-path="url(#clipPath2)" width="72" rx="4" ry="4" height="44" stroke="none"/>
    </g>
    <g text-rendering="geometricPrecision" stroke-miterlimit="1.45" shape-rendering="geometricPrecision" transform="matrix(1,0,0,1,86,-92)" stroke-linecap="butt">
      <rect x="459.6382" y="221" clip-path="url(#clipPath2)" fill="none" width="72" rx="4" ry="4" height="44"/>
      <text x="462.6206" xml:space="preserve" y="240.3633" clip-path="url(#clipPath2)" font-family="sans-serif" stroke="none">Deploy akce</text>
      <text x="479.6333" xml:space="preserve" y="255.0645" clip-path="url(#clipPath2)" font-family="sans-serif" stroke="none">Hráč2</text>
      <path fill="none" d="M381.8871 263.4038 L117.2336 416.5887" clip-path="url(#clipPath2)"/>
      <path d="M110.3098 420.5963 L123.2003 418.9123 L118.0991 416.0878 L118.1908 410.2575 Z" clip-path="url(#clipPath2)" stroke="none"/>
      <path fill="none" d="M466.4147 264.99 L266.295 415.5752" clip-path="url(#clipPath2)"/>
      <path d="M259.9026 420.3853 L272.4976 417.1654 L267.0941 414.9739 L266.4849 409.1749 Z" clip-path="url(#clipPath2)" stroke="none"/>
    </g>
    <g fill="rgb(210,210,210)" text-rendering="geometricPrecision" shape-rendering="geometricPrecision" transform="matrix(1,0,0,1,86,-92) translate(4,4)" stroke="rgb(210,210,210)">
      <rect x="557.8794" width="172.2412" height="96.3765" y="183.6235" clip-path="url(#clipPath3)" stroke="none"/>
    </g>
    <g fill="rgb(202,200,176)" text-rendering="geometricPrecision" shape-rendering="geometricPrecision" transform="matrix(1,0,0,1,86,-92)" stroke="rgb(202,200,176)">
      <rect x="557.8794" width="172.2412" height="96.3765" y="183.6235" clip-path="url(#clipPath2)" stroke="none"/>
      <rect x="557.8794" y="183.6235" clip-path="url(#clipPath2)" fill="rgb(183,182,158)" width="172.2412" height="22.3765" stroke="none"/>
    </g>
    <g font-size="15px" stroke-linecap="butt" transform="matrix(1,0,0,1,86,-92)" text-rendering="geometricPrecision" font-family="sans-serif" shape-rendering="geometricPrecision" stroke-miterlimit="1.45">
      <text x="653.9189" xml:space="preserve" y="200.7041" clip-path="url(#clipPath2)" stroke="none">Attack fáze</text>
      <rect fill="none" x="557.8794" width="172.2412" height="96.3765" y="183.6235" clip-path="url(#clipPath2)"/>
    </g>
    <g fill="rgb(255,204,0)" text-rendering="geometricPrecision" shape-rendering="geometricPrecision" transform="matrix(1,0,0,1,86,-92)" stroke="rgb(255,204,0)">
      <rect x="572.8794" y="221" clip-path="url(#clipPath2)" width="67" rx="4" ry="4" height="44" stroke="none"/>
    </g>
    <g text-rendering="geometricPrecision" stroke-miterlimit="1.45" shape-rendering="geometricPrecision" transform="matrix(1,0,0,1,86,-92)" stroke-linecap="butt">
      <rect x="572.8794" y="221" clip-path="url(#clipPath2)" fill="none" width="67" rx="4" ry="4" height="44"/>
      <text x="575.3657" xml:space="preserve" y="240.3633" clip-path="url(#clipPath2)" font-family="sans-serif" stroke="none">Attack akce</text>
      <text x="590.3745" xml:space="preserve" y="255.0645" clip-path="url(#clipPath2)" font-family="sans-serif" stroke="none">Hráč2</text>
    </g>
    <g fill="rgb(255,204,0)" text-rendering="geometricPrecision" shape-rendering="geometricPrecision" transform="matrix(1,0,0,1,86,-92)" stroke="rgb(255,204,0)">
      <rect x="648.1206" y="221" clip-path="url(#clipPath2)" width="67" rx="4" ry="4" height="44" stroke="none"/>
    </g>
    <g text-rendering="geometricPrecision" stroke-miterlimit="1.45" shape-rendering="geometricPrecision" transform="matrix(1,0,0,1,86,-92)" stroke-linecap="butt">
      <rect x="648.1206" y="221" clip-path="url(#clipPath2)" fill="none" width="67" rx="4" ry="4" height="44"/>
      <text x="650.6069" xml:space="preserve" y="240.3633" clip-path="url(#clipPath2)" font-family="sans-serif" stroke="none">Attack akce</text>
      <text x="665.6157" xml:space="preserve" y="255.0645" clip-path="url(#clipPath2)" font-family="sans-serif" stroke="none">Hráč2</text>
      <path fill="none" d="M593.1571 264.99 L503.8551 413.5079" clip-path="url(#clipPath2)"/>
      <path d="M499.7326 420.364 L510.2013 412.6565 L504.3704 412.6509 L501.6313 407.5034 Z" clip-path="url(#clipPath2)" stroke="none"/>
      <path fill="none" d="M678.4274 264.9659 L656.9879 412.4445" clip-path="url(#clipPath2)"/>
      <path d="M655.837 420.3613 L662.5113 409.2054 L657.1317 411.4549 L652.6153 407.7668 Z" clip-path="url(#clipPath2)" stroke="none"/>
    </g>
  </g>
</svg>
