<?xml version="1.0" encoding="UTF-8"?><svg xmlns="http://www.w3.org/2000/svg" xmlns:xlink="http://www.w3.org/1999/xlink" fill-opacity="1" color-rendering="auto" color-interpolation="auto" text-rendering="auto" stroke="black" stroke-linecap="square" width="805" stroke-miterlimit="10" shape-rendering="auto" stroke-opacity="1" fill="black" stroke-dasharray="none" font-weight="normal" stroke-width="1" height="422" font-family="'Dialog'" font-style="normal" stroke-linejoin="miter" font-size="12px" stroke-dashoffset="0" image-rendering="auto">
  <!--Generated by ySVG 2.5-->
  <defs id="genericDefs"/>
  <g>
    <defs id="defs1">
      <clipPath clipPathUnits="userSpaceOnUse" id="clipPath1">
        <path d="M0 0 L805 0 L805 422 L0 422 L0 0 Z"/>
      </clipPath>
      <clipPath clipPathUnits="userSpaceOnUse" id="clipPath2">
        <path d="M-77 92 L728 92 L728 514 L-77 514 L-77 92 Z"/>
      </clipPath>
      <clipPath clipPathUnits="userSpaceOnUse" id="clipPath3">
        <path d="M-81 88 L724 88 L724 510 L-81 510 L-81 88 Z"/>
      </clipPath>
    </defs>
    <g fill="white" text-rendering="geometricPrecision" shape-rendering="geometricPrecision" transform="translate(77,-92)" stroke="white">
      <rect x="-77" width="805" height="422" y="92" clip-path="url(#clipPath2)" stroke="none"/>
    </g>
    <g fill="rgb(210,210,210)" text-rendering="geometricPrecision" shape-rendering="geometricPrecision" transform="matrix(1,0,0,1,77,-92) translate(4,4)" stroke="rgb(210,210,210)">
      <rect x="-61.5" width="770" height="148.7529" y="345.6235" clip-path="url(#clipPath3)" stroke="none"/>
    </g>
    <g fill="rgb(242,240,216)" text-rendering="geometricPrecision" shape-rendering="geometricPrecision" transform="matrix(1,0,0,1,77,-92)" stroke="rgb(242,240,216)">
      <rect x="-61.5" width="770" height="148.7529" y="345.6235" clip-path="url(#clipPath2)" stroke="none"/>
      <rect x="-61.5" y="345.6235" clip-path="url(#clipPath2)" fill="rgb(183,182,158)" width="770" height="22.3765" stroke="none"/>
    </g>
    <g font-size="15px" stroke-linecap="butt" transform="matrix(1,0,0,1,77,-92)" text-rendering="geometricPrecision" font-family="sans-serif" shape-rendering="geometricPrecision" stroke-miterlimit="1.45">
      <text x="594.7544" xml:space="preserve" y="362.7041" clip-path="url(#clipPath2)" stroke="none">Linearized round</text>
      <rect fill="none" x="-61.5" width="770" height="148.7529" y="345.6235" clip-path="url(#clipPath2)"/>
    </g>
    <g fill="rgb(210,210,210)" text-rendering="geometricPrecision" shape-rendering="geometricPrecision" transform="matrix(1,0,0,1,77,-92) translate(4,4)" stroke="rgb(210,210,210)">
      <rect x="-46.5" width="317" height="91.3765" y="383" clip-path="url(#clipPath3)" stroke="none"/>
    </g>
    <g fill="rgb(222,220,196)" text-rendering="geometricPrecision" shape-rendering="geometricPrecision" transform="matrix(1,0,0,1,77,-92)" stroke="rgb(222,220,196)">
      <rect x="-46.5" width="317" height="91.3765" y="383" clip-path="url(#clipPath2)" stroke="none"/>
      <rect x="-46.5" y="383" clip-path="url(#clipPath2)" fill="rgb(183,182,158)" width="317" height="22.3765" stroke="none"/>
    </g>
    <g font-size="15px" stroke-linecap="butt" transform="matrix(1,0,0,1,77,-92)" text-rendering="geometricPrecision" font-family="sans-serif" shape-rendering="geometricPrecision" stroke-miterlimit="1.45">
      <text x="214.3081" xml:space="preserve" y="400.0806" clip-path="url(#clipPath2)" stroke="none">Deploys</text>
      <rect fill="none" x="-46.5" width="317" height="91.3765" y="383" clip-path="url(#clipPath2)"/>
    </g>
    <g fill="rgb(255,204,0)" text-rendering="geometricPrecision" shape-rendering="geometricPrecision" transform="matrix(1,0,0,1,77,-92)" stroke="rgb(255,204,0)">
      <rect x="-31.5" y="420.3765" clip-path="url(#clipPath2)" width="61" rx="4" ry="4" height="39" stroke="none"/>
    </g>
    <g text-rendering="geometricPrecision" stroke-miterlimit="1.45" shape-rendering="geometricPrecision" transform="matrix(1,0,0,1,77,-92)" stroke-linecap="butt">
      <rect x="-31.5" y="420.3765" clip-path="url(#clipPath2)" fill="none" width="61" rx="4" ry="4" height="39"/>
      <text x="-19.6768" xml:space="preserve" y="437.2397" clip-path="url(#clipPath2)" font-family="sans-serif" stroke="none">Deploy</text>
      <text x="-21.3438" xml:space="preserve" y="451.9409" clip-path="url(#clipPath2)" font-family="sans-serif" stroke="none">Player1</text>
    </g>
    <g fill="rgb(255,204,0)" text-rendering="geometricPrecision" shape-rendering="geometricPrecision" transform="matrix(1,0,0,1,77,-92)" stroke="rgb(255,204,0)">
      <rect x="128.5" y="420.3765" clip-path="url(#clipPath2)" width="61" rx="4" ry="4" height="39" stroke="none"/>
    </g>
    <g text-rendering="geometricPrecision" stroke-miterlimit="1.45" shape-rendering="geometricPrecision" transform="matrix(1,0,0,1,77,-92)" stroke-linecap="butt">
      <rect x="128.5" y="420.3765" clip-path="url(#clipPath2)" fill="none" width="61" rx="4" ry="4" height="39"/>
      <text x="140.3232" xml:space="preserve" y="437.2397" clip-path="url(#clipPath2)" font-family="sans-serif" stroke="none">Deploy</text>
      <text x="138.6562" xml:space="preserve" y="451.9409" clip-path="url(#clipPath2)" font-family="sans-serif" stroke="none">Player1</text>
    </g>
    <g fill="rgb(255,204,0)" text-rendering="geometricPrecision" shape-rendering="geometricPrecision" transform="matrix(1,0,0,1,77,-92)" stroke="rgb(255,204,0)">
      <rect x="37.5" y="420.3765" clip-path="url(#clipPath2)" width="61" rx="4" ry="4" height="39" stroke="none"/>
    </g>
    <g text-rendering="geometricPrecision" stroke-miterlimit="1.45" shape-rendering="geometricPrecision" transform="matrix(1,0,0,1,77,-92)" stroke-linecap="butt">
      <rect x="37.5" y="420.3765" clip-path="url(#clipPath2)" fill="none" width="61" rx="4" ry="4" height="39"/>
      <text x="49.3232" xml:space="preserve" y="437.2397" clip-path="url(#clipPath2)" font-family="sans-serif" stroke="none">Deploy</text>
      <text x="47.6562" xml:space="preserve" y="451.9409" clip-path="url(#clipPath2)" font-family="sans-serif" stroke="none">Player2</text>
    </g>
    <g fill="rgb(255,204,0)" text-rendering="geometricPrecision" shape-rendering="geometricPrecision" transform="matrix(1,0,0,1,77,-92)" stroke="rgb(255,204,0)">
      <rect x="194.5" y="420.3765" clip-path="url(#clipPath2)" width="61" rx="4" ry="4" height="39" stroke="none"/>
    </g>
    <g text-rendering="geometricPrecision" stroke-miterlimit="1.45" shape-rendering="geometricPrecision" transform="matrix(1,0,0,1,77,-92)" stroke-linecap="butt">
      <rect x="194.5" y="420.3765" clip-path="url(#clipPath2)" fill="none" width="61" rx="4" ry="4" height="39"/>
      <text x="206.3232" xml:space="preserve" y="437.2397" clip-path="url(#clipPath2)" font-family="sans-serif" stroke="none">Deploy</text>
      <text x="204.6562" xml:space="preserve" y="451.9409" clip-path="url(#clipPath2)" font-family="sans-serif" stroke="none">Player2</text>
    </g>
    <g fill="rgb(210,210,210)" text-rendering="geometricPrecision" shape-rendering="geometricPrecision" transform="matrix(1,0,0,1,77,-92) translate(4,4)" stroke="rgb(210,210,210)">
      <rect x="365.5" width="324" height="91.3765" y="383" clip-path="url(#clipPath3)" stroke="none"/>
    </g>
    <g fill="rgb(222,220,196)" text-rendering="geometricPrecision" shape-rendering="geometricPrecision" transform="matrix(1,0,0,1,77,-92)" stroke="rgb(222,220,196)">
      <rect x="365.5" width="324" height="91.3765" y="383" clip-path="url(#clipPath2)" stroke="none"/>
      <rect x="365.5" y="383" clip-path="url(#clipPath2)" fill="rgb(183,182,158)" width="324" height="22.3765" stroke="none"/>
    </g>
    <g font-size="15px" stroke-linecap="butt" transform="matrix(1,0,0,1,77,-92)" text-rendering="geometricPrecision" font-family="sans-serif" shape-rendering="geometricPrecision" stroke-miterlimit="1.45">
      <text x="638.3179" xml:space="preserve" y="400.0806" clip-path="url(#clipPath2)" stroke="none">Attacks</text>
      <rect fill="none" x="365.5" width="324" height="91.3765" y="383" clip-path="url(#clipPath2)"/>
    </g>
    <g fill="rgb(255,204,0)" text-rendering="geometricPrecision" shape-rendering="geometricPrecision" transform="matrix(1,0,0,1,77,-92)" stroke="rgb(255,204,0)">
      <rect x="380.5" y="420.3765" clip-path="url(#clipPath2)" width="61" rx="4" ry="4" height="39" stroke="none"/>
    </g>
    <g text-rendering="geometricPrecision" stroke-miterlimit="1.45" shape-rendering="geometricPrecision" transform="matrix(1,0,0,1,77,-92)" stroke-linecap="butt">
      <rect x="380.5" y="420.3765" clip-path="url(#clipPath2)" fill="none" width="61" rx="4" ry="4" height="39"/>
      <text x="394.3271" xml:space="preserve" y="437.2397" clip-path="url(#clipPath2)" font-family="sans-serif" stroke="none">Attack</text>
      <text x="390.6562" xml:space="preserve" y="451.9409" clip-path="url(#clipPath2)" font-family="sans-serif" stroke="none">Player1</text>
    </g>
    <g fill="rgb(255,204,0)" text-rendering="geometricPrecision" shape-rendering="geometricPrecision" transform="matrix(1,0,0,1,77,-92)" stroke="rgb(255,204,0)">
      <rect x="613.5" y="420.3765" clip-path="url(#clipPath2)" width="61" rx="4" ry="4" height="39" stroke="none"/>
    </g>
    <g text-rendering="geometricPrecision" stroke-miterlimit="1.45" shape-rendering="geometricPrecision" transform="matrix(1,0,0,1,77,-92)" stroke-linecap="butt">
      <rect x="613.5" y="420.3765" clip-path="url(#clipPath2)" fill="none" width="61" rx="4" ry="4" height="39"/>
      <text x="627.3271" xml:space="preserve" y="437.2397" clip-path="url(#clipPath2)" font-family="sans-serif" stroke="none">Attack</text>
      <text x="623.6562" xml:space="preserve" y="451.9409" clip-path="url(#clipPath2)" font-family="sans-serif" stroke="none">Player1</text>
    </g>
    <g fill="rgb(255,204,0)" text-rendering="geometricPrecision" shape-rendering="geometricPrecision" transform="matrix(1,0,0,1,77,-92)" stroke="rgb(255,204,0)">
      <rect x="448.5" y="420.3765" clip-path="url(#clipPath2)" width="61" rx="4" ry="4" height="39" stroke="none"/>
    </g>
    <g text-rendering="geometricPrecision" stroke-miterlimit="1.45" shape-rendering="geometricPrecision" transform="matrix(1,0,0,1,77,-92)" stroke-linecap="butt">
      <rect x="448.5" y="420.3765" clip-path="url(#clipPath2)" fill="none" width="61" rx="4" ry="4" height="39"/>
      <text x="462.3271" xml:space="preserve" y="437.2397" clip-path="url(#clipPath2)" font-family="sans-serif" stroke="none">Attack</text>
      <text x="458.6562" xml:space="preserve" y="451.9409" clip-path="url(#clipPath2)" font-family="sans-serif" stroke="none">Player2</text>
    </g>
    <g fill="rgb(255,204,0)" text-rendering="geometricPrecision" shape-rendering="geometricPrecision" transform="matrix(1,0,0,1,77,-92)" stroke="rgb(255,204,0)">
      <rect x="544.5" y="420.3765" clip-path="url(#clipPath2)" width="61" rx="4" ry="4" height="39" stroke="none"/>
    </g>
    <g text-rendering="geometricPrecision" stroke-miterlimit="1.45" shape-rendering="geometricPrecision" transform="matrix(1,0,0,1,77,-92)" stroke-linecap="butt">
      <rect x="544.5" y="420.3765" clip-path="url(#clipPath2)" fill="none" width="61" rx="4" ry="4" height="39"/>
      <text x="558.3271" xml:space="preserve" y="437.2397" clip-path="url(#clipPath2)" font-family="sans-serif" stroke="none">Attack</text>
      <text x="554.6562" xml:space="preserve" y="451.9409" clip-path="url(#clipPath2)" font-family="sans-serif" stroke="none">Player2</text>
    </g>
    <g fill="rgb(210,210,210)" text-rendering="geometricPrecision" shape-rendering="geometricPrecision" transform="matrix(1,0,0,1,77,-92) translate(4,4)" stroke="rgb(210,210,210)">
      <rect x="-61.5" width="770" height="219.1294" y="107.8706" clip-path="url(#clipPath3)" stroke="none"/>
    </g>
    <g fill="rgb(242,240,216)" text-rendering="geometricPrecision" shape-rendering="geometricPrecision" transform="matrix(1,0,0,1,77,-92)" stroke="rgb(242,240,216)">
      <rect x="-61.5" width="770" height="219.1294" y="107.8706" clip-path="url(#clipPath2)" stroke="none"/>
      <rect x="-61.5" y="107.8706" clip-path="url(#clipPath2)" fill="rgb(183,182,158)" width="770" height="22.3765" stroke="none"/>
    </g>
    <g font-size="15px" stroke-linecap="butt" transform="matrix(1,0,0,1,77,-92)" text-rendering="geometricPrecision" font-family="sans-serif" shape-rendering="geometricPrecision" stroke-miterlimit="1.45">
      <text x="662.2983" xml:space="preserve" y="124.9512" clip-path="url(#clipPath2)" stroke="none">Round</text>
      <rect fill="none" x="-61.5" width="770" height="219.1294" y="107.8706" clip-path="url(#clipPath2)"/>
    </g>
    <g fill="rgb(210,210,210)" text-rendering="geometricPrecision" shape-rendering="geometricPrecision" transform="matrix(1,0,0,1,77,-92) translate(4,4)" stroke="rgb(210,210,210)">
      <rect x="-46.5" width="360" height="160.7529" y="146.2471" clip-path="url(#clipPath3)" stroke="none"/>
    </g>
    <g fill="rgb(222,220,196)" text-rendering="geometricPrecision" shape-rendering="geometricPrecision" transform="matrix(1,0,0,1,77,-92)" stroke="rgb(222,220,196)">
      <rect x="-46.5" width="360" height="160.7529" y="146.2471" clip-path="url(#clipPath2)" stroke="none"/>
      <rect x="-46.5" y="146.2471" clip-path="url(#clipPath2)" fill="rgb(183,182,158)" width="360" height="22.3765" stroke="none"/>
    </g>
    <g font-size="15px" stroke-linecap="butt" transform="matrix(1,0,0,1,77,-92)" text-rendering="geometricPrecision" font-family="sans-serif" shape-rendering="geometricPrecision" stroke-miterlimit="1.45">
      <text x="225.6309" xml:space="preserve" y="163.3276" clip-path="url(#clipPath2)" stroke="none">Turn Player1</text>
      <rect fill="none" x="-46.5" width="360" height="160.7529" y="146.2471" clip-path="url(#clipPath2)"/>
    </g>
    <g fill="rgb(210,210,210)" text-rendering="geometricPrecision" shape-rendering="geometricPrecision" transform="matrix(1,0,0,1,77,-92) translate(4,4)" stroke="rgb(210,210,210)">
      <rect x="-31.5" width="160" height="96.3765" y="183.6235" clip-path="url(#clipPath3)" stroke="none"/>
    </g>
    <g fill="rgb(202,200,176)" text-rendering="geometricPrecision" shape-rendering="geometricPrecision" transform="matrix(1,0,0,1,77,-92)" stroke="rgb(202,200,176)">
      <rect x="-31.5" width="160" height="96.3765" y="183.6235" clip-path="url(#clipPath2)" stroke="none"/>
      <rect x="-31.5" y="183.6235" clip-path="url(#clipPath2)" fill="rgb(183,182,158)" width="160" height="22.3765" stroke="none"/>
    </g>
    <g font-size="15px" stroke-linecap="butt" transform="matrix(1,0,0,1,77,-92)" text-rendering="geometricPrecision" font-family="sans-serif" shape-rendering="geometricPrecision" stroke-miterlimit="1.45">
      <text x="72.3081" xml:space="preserve" y="200.7041" clip-path="url(#clipPath2)" stroke="none">Deploys</text>
      <rect fill="none" x="-31.5" width="160" height="96.3765" y="183.6235" clip-path="url(#clipPath2)"/>
    </g>
    <g fill="rgb(255,204,0)" text-rendering="geometricPrecision" shape-rendering="geometricPrecision" transform="matrix(1,0,0,1,77,-92)" stroke="rgb(255,204,0)">
      <rect x="-16.5" y="221" clip-path="url(#clipPath2)" width="61" rx="4" ry="4" height="44" stroke="none"/>
    </g>
    <g text-rendering="geometricPrecision" stroke-miterlimit="1.45" shape-rendering="geometricPrecision" transform="matrix(1,0,0,1,77,-92)" stroke-linecap="butt">
      <rect x="-16.5" y="221" clip-path="url(#clipPath2)" fill="none" width="61" rx="4" ry="4" height="44"/>
      <text x="-4.6768" xml:space="preserve" y="240.3633" clip-path="url(#clipPath2)" font-family="sans-serif" stroke="none">Deploy</text>
      <text x="-6.3438" xml:space="preserve" y="255.0645" clip-path="url(#clipPath2)" font-family="sans-serif" stroke="none">Player1</text>
    </g>
    <g fill="rgb(255,204,0)" text-rendering="geometricPrecision" shape-rendering="geometricPrecision" transform="matrix(1,0,0,1,77,-92)" stroke="rgb(255,204,0)">
      <rect x="52.5" y="221" clip-path="url(#clipPath2)" width="61" rx="4" ry="4" height="44" stroke="none"/>
    </g>
    <g text-rendering="geometricPrecision" stroke-miterlimit="1.45" shape-rendering="geometricPrecision" transform="matrix(1,0,0,1,77,-92)" stroke-linecap="butt">
      <rect x="52.5" y="221" clip-path="url(#clipPath2)" fill="none" width="61" rx="4" ry="4" height="44"/>
      <text x="64.3232" xml:space="preserve" y="240.3633" clip-path="url(#clipPath2)" font-family="sans-serif" stroke="none">Deploy</text>
      <text x="62.6562" xml:space="preserve" y="255.0645" clip-path="url(#clipPath2)" font-family="sans-serif" stroke="none">Player1</text>
      <path fill="none" d="M12.3264 264.9659 L1.0946 412.3844" clip-path="url(#clipPath2)"/>
      <path d="M0.4869 420.3613 L6.384 408.7758 L1.1706 411.3873 L-3.5871 408.0161 Z" clip-path="url(#clipPath2)" stroke="none"/>
      <path fill="none" d="M91.4888 264.99 L148.5866 412.9008" clip-path="url(#clipPath2)"/>
      <path d="M151.4676 420.364 L151.8106 407.3685 L148.2265 411.9679 L142.4816 410.9698 Z" clip-path="url(#clipPath2)" stroke="none"/>
    </g>
    <g fill="rgb(210,210,210)" text-rendering="geometricPrecision" shape-rendering="geometricPrecision" transform="matrix(1,0,0,1,77,-92) translate(4,4)" stroke="rgb(210,210,210)">
      <rect x="137.5" width="157" height="96.3765" y="183.6235" clip-path="url(#clipPath3)" stroke="none"/>
    </g>
    <g fill="rgb(202,200,176)" text-rendering="geometricPrecision" shape-rendering="geometricPrecision" transform="matrix(1,0,0,1,77,-92)" stroke="rgb(202,200,176)">
      <rect x="137.5" width="157" height="96.3765" y="183.6235" clip-path="url(#clipPath2)" stroke="none"/>
      <rect x="137.5" y="183.6235" clip-path="url(#clipPath2)" fill="rgb(183,182,158)" width="157" height="22.3765" stroke="none"/>
    </g>
    <g font-size="15px" stroke-linecap="butt" transform="matrix(1,0,0,1,77,-92)" text-rendering="geometricPrecision" font-family="sans-serif" shape-rendering="geometricPrecision" stroke-miterlimit="1.45">
      <text x="243.3179" xml:space="preserve" y="200.7041" clip-path="url(#clipPath2)" stroke="none">Attacks</text>
      <rect fill="none" x="137.5" width="157" height="96.3765" y="183.6235" clip-path="url(#clipPath2)"/>
    </g>
    <g fill="rgb(255,204,0)" text-rendering="geometricPrecision" shape-rendering="geometricPrecision" transform="matrix(1,0,0,1,77,-92)" stroke="rgb(255,204,0)">
      <rect x="152.5" y="221" clip-path="url(#clipPath2)" width="61" rx="4" ry="4" height="44" stroke="none"/>
    </g>
    <g text-rendering="geometricPrecision" stroke-miterlimit="1.45" shape-rendering="geometricPrecision" transform="matrix(1,0,0,1,77,-92)" stroke-linecap="butt">
      <rect x="152.5" y="221" clip-path="url(#clipPath2)" fill="none" width="61" rx="4" ry="4" height="44"/>
      <text x="166.3271" xml:space="preserve" y="240.3633" clip-path="url(#clipPath2)" font-family="sans-serif" stroke="none">Attack</text>
      <text x="162.6562" xml:space="preserve" y="255.0645" clip-path="url(#clipPath2)" font-family="sans-serif" stroke="none">Player1</text>
    </g>
    <g fill="rgb(255,204,0)" text-rendering="geometricPrecision" shape-rendering="geometricPrecision" transform="matrix(1,0,0,1,77,-92)" stroke="rgb(255,204,0)">
      <rect x="218.5" y="221" clip-path="url(#clipPath2)" width="61" rx="4" ry="4" height="44" stroke="none"/>
    </g>
    <g text-rendering="geometricPrecision" stroke-miterlimit="1.45" shape-rendering="geometricPrecision" transform="matrix(1,0,0,1,77,-92)" stroke-linecap="butt">
      <rect x="218.5" y="221" clip-path="url(#clipPath2)" fill="none" width="61" rx="4" ry="4" height="44"/>
      <text x="232.3271" xml:space="preserve" y="240.3633" clip-path="url(#clipPath2)" font-family="sans-serif" stroke="none">Attack</text>
      <text x="228.6562" xml:space="preserve" y="255.0645" clip-path="url(#clipPath2)" font-family="sans-serif" stroke="none">Player1</text>
      <path fill="none" d="M208.4663 264.99 L382.3726 415.1569" clip-path="url(#clipPath2)"/>
      <path d="M388.4276 420.3853 L382.6128 408.7583 L381.6157 414.5033 L376.0772 416.327 Z" clip-path="url(#clipPath2)" stroke="none"/>
      <path fill="none" d="M279.4431 261.3851 L538.4591 417.8089" clip-path="url(#clipPath2)"/>
      <path d="M545.3072 421.9445 L537.6198 411.461 L537.6031 417.2919 L532.4503 420.0211 Z" clip-path="url(#clipPath2)" stroke="none"/>
    </g>
    <g fill="rgb(210,210,210)" text-rendering="geometricPrecision" shape-rendering="geometricPrecision" transform="matrix(1,0,0,1,77,-92) translate(4,4)" stroke="rgb(210,210,210)">
      <rect x="324.5" width="365" height="161.7529" y="145.2471" clip-path="url(#clipPath3)" stroke="none"/>
    </g>
    <g fill="rgb(222,220,196)" text-rendering="geometricPrecision" shape-rendering="geometricPrecision" transform="matrix(1,0,0,1,77,-92)" stroke="rgb(222,220,196)">
      <rect x="324.5" width="365" height="161.7529" y="145.2471" clip-path="url(#clipPath2)" stroke="none"/>
      <rect x="324.5" y="145.2471" clip-path="url(#clipPath2)" fill="rgb(183,182,158)" width="365" height="22.3765" stroke="none"/>
    </g>
    <g font-size="15px" stroke-linecap="butt" transform="matrix(1,0,0,1,77,-92)" text-rendering="geometricPrecision" font-family="sans-serif" shape-rendering="geometricPrecision" stroke-miterlimit="1.45">
      <text x="601.6309" xml:space="preserve" y="162.3276" clip-path="url(#clipPath2)" stroke="none">Turn Player2</text>
      <rect fill="none" x="324.5" width="365" height="161.7529" y="145.2471" clip-path="url(#clipPath2)"/>
    </g>
    <g fill="rgb(210,210,210)" text-rendering="geometricPrecision" shape-rendering="geometricPrecision" transform="matrix(1,0,0,1,77,-92) translate(4,4)" stroke="rgb(210,210,210)">
      <rect x="340" width="161" height="96.3765" y="183.6235" clip-path="url(#clipPath3)" stroke="none"/>
    </g>
    <g fill="rgb(202,200,176)" text-rendering="geometricPrecision" shape-rendering="geometricPrecision" transform="matrix(1,0,0,1,77,-92)" stroke="rgb(202,200,176)">
      <rect x="340" width="161" height="96.3765" y="183.6235" clip-path="url(#clipPath2)" stroke="none"/>
      <rect x="340" y="183.6235" clip-path="url(#clipPath2)" fill="rgb(183,182,158)" width="161" height="22.3765" stroke="none"/>
    </g>
    <g font-size="15px" stroke-linecap="butt" transform="matrix(1,0,0,1,77,-92)" text-rendering="geometricPrecision" font-family="sans-serif" shape-rendering="geometricPrecision" stroke-miterlimit="1.45">
      <text x="444.8081" xml:space="preserve" y="200.7041" clip-path="url(#clipPath2)" stroke="none">Deploys</text>
      <rect fill="none" x="340" width="161" height="96.3765" y="183.6235" clip-path="url(#clipPath2)"/>
    </g>
    <g fill="rgb(255,204,0)" text-rendering="geometricPrecision" shape-rendering="geometricPrecision" transform="matrix(1,0,0,1,77,-92)" stroke="rgb(255,204,0)">
      <rect x="355" y="221" clip-path="url(#clipPath2)" width="61" rx="4" ry="4" height="44" stroke="none"/>
    </g>
    <g text-rendering="geometricPrecision" stroke-miterlimit="1.45" shape-rendering="geometricPrecision" transform="matrix(1,0,0,1,77,-92)" stroke-linecap="butt">
      <rect x="355" y="221" clip-path="url(#clipPath2)" fill="none" width="61" rx="4" ry="4" height="44"/>
      <text x="366.8232" xml:space="preserve" y="240.3633" clip-path="url(#clipPath2)" font-family="sans-serif" stroke="none">Deploy</text>
      <text x="365.1562" xml:space="preserve" y="255.0645" clip-path="url(#clipPath2)" font-family="sans-serif" stroke="none">Player2</text>
    </g>
    <g fill="rgb(255,204,0)" text-rendering="geometricPrecision" shape-rendering="geometricPrecision" transform="matrix(1,0,0,1,77,-92)" stroke="rgb(255,204,0)">
      <rect x="425" y="221" clip-path="url(#clipPath2)" width="61" rx="4" ry="4" height="44" stroke="none"/>
    </g>
    <g text-rendering="geometricPrecision" stroke-miterlimit="1.45" shape-rendering="geometricPrecision" transform="matrix(1,0,0,1,77,-92)" stroke-linecap="butt">
      <rect x="425" y="221" clip-path="url(#clipPath2)" fill="none" width="61" rx="4" ry="4" height="44"/>
      <text x="436.8232" xml:space="preserve" y="240.3633" clip-path="url(#clipPath2)" font-family="sans-serif" stroke="none">Deploy</text>
      <text x="435.1562" xml:space="preserve" y="255.0645" clip-path="url(#clipPath2)" font-family="sans-serif" stroke="none">Player2</text>
      <path fill="none" d="M355.0755 261.8657 L104.2004 417.4292" clip-path="url(#clipPath2)"/>
      <path d="M97.4014 421.6451 L110.2348 419.5706 L105.0502 416.9022 L104.9649 411.0719 Z" clip-path="url(#clipPath2)" stroke="none"/>
      <path fill="none" d="M429.7545 264.99 L253.903 415.1896" clip-path="url(#clipPath2)"/>
      <path d="M247.8199 420.3853 L260.1919 416.3936 L254.6634 414.5401 L253.6972 408.7898 Z" clip-path="url(#clipPath2)" stroke="none"/>
    </g>
    <g fill="rgb(210,210,210)" text-rendering="geometricPrecision" shape-rendering="geometricPrecision" transform="matrix(1,0,0,1,77,-92) translate(4,4)" stroke="rgb(210,210,210)">
      <rect x="512.5" width="158" height="96.3765" y="183.6235" clip-path="url(#clipPath3)" stroke="none"/>
    </g>
    <g fill="rgb(202,200,176)" text-rendering="geometricPrecision" shape-rendering="geometricPrecision" transform="matrix(1,0,0,1,77,-92)" stroke="rgb(202,200,176)">
      <rect x="512.5" width="158" height="96.3765" y="183.6235" clip-path="url(#clipPath2)" stroke="none"/>
      <rect x="512.5" y="183.6235" clip-path="url(#clipPath2)" fill="rgb(183,182,158)" width="158" height="22.3765" stroke="none"/>
    </g>
    <g font-size="15px" stroke-linecap="butt" transform="matrix(1,0,0,1,77,-92)" text-rendering="geometricPrecision" font-family="sans-serif" shape-rendering="geometricPrecision" stroke-miterlimit="1.45">
      <text x="619.3179" xml:space="preserve" y="200.7041" clip-path="url(#clipPath2)" stroke="none">Attacks</text>
      <rect fill="none" x="512.5" width="158" height="96.3765" y="183.6235" clip-path="url(#clipPath2)"/>
    </g>
    <g fill="rgb(255,204,0)" text-rendering="geometricPrecision" shape-rendering="geometricPrecision" transform="matrix(1,0,0,1,77,-92)" stroke="rgb(255,204,0)">
      <rect x="527.5" y="221" clip-path="url(#clipPath2)" width="61" rx="4" ry="4" height="44" stroke="none"/>
    </g>
    <g text-rendering="geometricPrecision" stroke-miterlimit="1.45" shape-rendering="geometricPrecision" transform="matrix(1,0,0,1,77,-92)" stroke-linecap="butt">
      <rect x="527.5" y="221" clip-path="url(#clipPath2)" fill="none" width="61" rx="4" ry="4" height="44"/>
      <text x="541.3271" xml:space="preserve" y="240.3633" clip-path="url(#clipPath2)" font-family="sans-serif" stroke="none">Attack</text>
      <text x="537.6562" xml:space="preserve" y="255.0645" clip-path="url(#clipPath2)" font-family="sans-serif" stroke="none">Player2</text>
    </g>
    <g fill="rgb(255,204,0)" text-rendering="geometricPrecision" shape-rendering="geometricPrecision" transform="matrix(1,0,0,1,77,-92)" stroke="rgb(255,204,0)">
      <rect x="594.5" y="221" clip-path="url(#clipPath2)" width="61" rx="4" ry="4" height="44" stroke="none"/>
    </g>
    <g text-rendering="geometricPrecision" stroke-miterlimit="1.45" shape-rendering="geometricPrecision" transform="matrix(1,0,0,1,77,-92)" stroke-linecap="butt">
      <rect x="594.5" y="221" clip-path="url(#clipPath2)" fill="none" width="61" rx="4" ry="4" height="44"/>
      <text x="608.3271" xml:space="preserve" y="240.3633" clip-path="url(#clipPath2)" font-family="sans-serif" stroke="none">Attack</text>
      <text x="604.6562" xml:space="preserve" y="255.0645" clip-path="url(#clipPath2)" font-family="sans-serif" stroke="none">Player2</text>
      <path fill="none" d="M549.1761 264.99 L489.8089 412.9394" clip-path="url(#clipPath2)"/>
      <path d="M486.8297 420.364 L495.9389 411.0891 L490.1813 412.0114 L486.6582 407.3651 Z" clip-path="url(#clipPath2)" stroke="none"/>
      <path fill="none" d="M627.1199 264.9659 L641.3481 412.3983" clip-path="url(#clipPath2)"/>
      <path d="M642.1166 420.3613 L645.9408 407.9365 L641.2521 411.4029 L635.987 408.8971 Z" clip-path="url(#clipPath2)" stroke="none"/>
    </g>
  </g>
</svg>
