<?xml version="1.0" encoding="UTF-8"?><svg xmlns="http://www.w3.org/2000/svg" xmlns:xlink="http://www.w3.org/1999/xlink" fill-opacity="1" color-rendering="auto" color-interpolation="auto" text-rendering="auto" stroke="black" stroke-linecap="square" width="477" stroke-miterlimit="10" shape-rendering="auto" stroke-opacity="1" fill="black" stroke-dasharray="none" font-weight="normal" stroke-width="1" height="148" font-family="'Dialog'" font-style="normal" stroke-linejoin="miter" font-size="12px" stroke-dashoffset="0" image-rendering="auto">
  <!--Generated by ySVG 2.5-->
  <defs id="genericDefs"/>
  <g>
    <defs id="defs1">
      <clipPath clipPathUnits="userSpaceOnUse" id="clipPath1">
        <path d="M0 0 L477 0 L477 148 L0 148 L0 0 Z"/>
      </clipPath>
      <clipPath clipPathUnits="userSpaceOnUse" id="clipPath2">
        <path d="M296 229 L773 229 L773 377 L296 377 L296 229 Z"/>
      </clipPath>
      <clipPath clipPathUnits="userSpaceOnUse" id="clipPath3">
        <path d="M292 225 L769 225 L769 373 L292 373 L292 225 Z"/>
      </clipPath>
    </defs>
    <g fill="white" text-rendering="geometricPrecision" shape-rendering="geometricPrecision" transform="translate(-296,-229)" stroke="white">
      <rect x="296" width="477" height="148" y="229" clip-path="url(#clipPath2)" stroke="none"/>
    </g>
    <g fill="rgb(210,210,210)" text-rendering="geometricPrecision" shape-rendering="geometricPrecision" transform="matrix(1,0,0,1,-296,-229) translate(4,4)" stroke="rgb(210,210,210)">
      <rect x="311.8154" width="441.3584" height="113.3765" y="244.6235" clip-path="url(#clipPath3)" stroke="none"/>
    </g>
    <g fill="rgb(242,240,216)" text-rendering="geometricPrecision" shape-rendering="geometricPrecision" transform="matrix(1,0,0,1,-296,-229)" stroke="rgb(242,240,216)">
      <rect x="311.8154" width="441.3584" height="113.3765" y="244.6235" clip-path="url(#clipPath2)" stroke="none"/>
      <rect x="311.8154" y="244.6235" clip-path="url(#clipPath2)" fill="rgb(183,182,158)" width="441.3584" height="22.3765" stroke="none"/>
    </g>
    <g font-size="15px" stroke-linecap="butt" transform="matrix(1,0,0,1,-296,-229)" text-rendering="geometricPrecision" font-family="sans-serif" shape-rendering="geometricPrecision" stroke-miterlimit="1.45">
      <text x="725.3267" xml:space="preserve" y="261.7041" clip-path="url(#clipPath2)" stroke="none">Tah</text>
      <rect fill="none" x="311.8154" width="441.3584" height="113.3765" y="244.6235" clip-path="url(#clipPath2)"/>
    </g>
    <g fill="rgb(255,204,0)" text-rendering="geometricPrecision" shape-rendering="geometricPrecision" transform="matrix(1,0,0,1,-296,-229)" stroke="rgb(255,204,0)">
      <rect x="362" y="294" clip-path="url(#clipPath2)" width="76" rx="4" ry="4" height="36" stroke="none"/>
    </g>
    <g text-rendering="geometricPrecision" stroke-miterlimit="1.45" shape-rendering="geometricPrecision" transform="matrix(1,0,0,1,-296,-229)" stroke-linecap="butt">
      <rect x="362" y="294" clip-path="url(#clipPath2)" fill="none" width="76" rx="4" ry="4" height="36"/>
      <text x="368.3154" xml:space="preserve" y="316.7139" clip-path="url(#clipPath2)" font-family="sans-serif" stroke="none">Deploy fáze</text>
    </g>
    <g fill="rgb(255,204,0)" text-rendering="geometricPrecision" shape-rendering="geometricPrecision" transform="matrix(1,0,0,1,-296,-229)" stroke="rgb(255,204,0)">
      <rect x="507" y="294" clip-path="url(#clipPath2)" width="76" rx="4" ry="4" height="36" stroke="none"/>
    </g>
    <g text-rendering="geometricPrecision" stroke-miterlimit="1.45" shape-rendering="geometricPrecision" transform="matrix(1,0,0,1,-296,-229)" stroke-linecap="butt">
      <rect x="507" y="294" clip-path="url(#clipPath2)" fill="none" width="76" rx="4" ry="4" height="36"/>
      <text x="515.3193" xml:space="preserve" y="316.7139" clip-path="url(#clipPath2)" font-family="sans-serif" stroke="none">Attack fáze</text>
    </g>
    <g fill="rgb(255,204,0)" text-rendering="geometricPrecision" shape-rendering="geometricPrecision" transform="matrix(1,0,0,1,-296,-229)" stroke="rgb(255,204,0)">
      <rect x="652" y="294" clip-path="url(#clipPath2)" width="76" rx="4" ry="4" height="36" stroke="none"/>
    </g>
    <g text-rendering="geometricPrecision" stroke-miterlimit="1.45" shape-rendering="geometricPrecision" transform="matrix(1,0,0,1,-296,-229)" stroke-linecap="butt">
      <rect x="652" y="294" clip-path="url(#clipPath2)" fill="none" width="76" rx="4" ry="4" height="36"/>
      <text x="656.3262" xml:space="preserve" y="316.7139" clip-path="url(#clipPath2)" font-family="sans-serif" stroke="none">Commit fáze</text>
      <path fill="none" d="M421.5588 293.9945 L436.25 284.8125 L445.3125 280.8477 L454.375 278.0156 L463.4375 276.3164 L472.5 275.75 L481.5625 276.3164 L490.625 278.0156 L499.6875 280.8477 L508.75 284.8125 L516.6572 289.7545" clip-path="url(#clipPath2)"/>
      <path d="M523.4412 293.9945 L515.9152 283.3945 L515.8091 289.2245 L510.6152 291.8745 Z" clip-path="url(#clipPath2)" stroke="none"/>
      <path fill="none" d="M566.5588 293.9945 L581.25 284.8125 L590.3125 280.8477 L599.375 278.0156 L608.4375 276.3164 L617.5 275.75 L626.5625 276.3164 L635.625 278.0156 L644.6875 280.8477 L653.75 284.8125 L661.6572 289.7545" clip-path="url(#clipPath2)"/>
      <path d="M668.4412 293.9945 L660.9152 283.3945 L660.8091 289.2245 L655.6152 291.8745 Z" clip-path="url(#clipPath2)" stroke="none"/>
    </g>
  </g>
</svg>
