<?xml version="1.0" encoding="UTF-8"?><svg xmlns="http://www.w3.org/2000/svg" xmlns:xlink="http://www.w3.org/1999/xlink" fill-opacity="1" color-rendering="auto" color-interpolation="auto" text-rendering="auto" stroke="black" stroke-linecap="square" width="471" stroke-miterlimit="10" shape-rendering="auto" stroke-opacity="1" fill="black" stroke-dasharray="none" font-weight="normal" stroke-width="1" height="278" font-family="'Dialog'" font-style="normal" stroke-linejoin="miter" font-size="12px" stroke-dashoffset="0" image-rendering="auto">
  <!--Generated by ySVG 2.5-->
  <defs id="genericDefs"/>
  <g>
    <defs id="defs1">
      <clipPath clipPathUnits="userSpaceOnUse" id="clipPath1">
        <path d="M0 0 L471 0 L471 278 L0 278 L0 0 Z"/>
      </clipPath>
      <clipPath clipPathUnits="userSpaceOnUse" id="clipPath2">
        <path d="M298 229 L769 229 L769 507 L298 507 L298 229 Z"/>
      </clipPath>
      <clipPath clipPathUnits="userSpaceOnUse" id="clipPath3">
        <path d="M294 225 L765 225 L765 503 L294 503 L294 225 Z"/>
      </clipPath>
    </defs>
    <g fill="white" text-rendering="geometricPrecision" shape-rendering="geometricPrecision" transform="translate(-298,-229)" stroke="white">
      <rect x="298" width="471" height="278" y="229" clip-path="url(#clipPath2)" stroke="none"/>
    </g>
    <g fill="rgb(210,210,210)" text-rendering="geometricPrecision" shape-rendering="geometricPrecision" transform="matrix(1,0,0,1,-298,-229) translate(4,4)" stroke="rgb(210,210,210)">
      <rect x="313" width="437" height="243.3765" y="244.6235" clip-path="url(#clipPath3)" stroke="none"/>
    </g>
    <g fill="rgb(242,240,216)" text-rendering="geometricPrecision" shape-rendering="geometricPrecision" transform="matrix(1,0,0,1,-298,-229)" stroke="rgb(242,240,216)">
      <rect x="313" width="437" height="243.3765" y="244.6235" clip-path="url(#clipPath2)" stroke="none"/>
      <rect x="313" y="244.6235" clip-path="url(#clipPath2)" fill="rgb(183,182,158)" width="437" height="22.3765" stroke="none"/>
    </g>
    <g font-size="15px" stroke-linecap="butt" transform="matrix(1,0,0,1,-298,-229)" text-rendering="geometricPrecision" font-family="sans-serif" shape-rendering="geometricPrecision" stroke-miterlimit="1.45">
      <text x="717.1577" xml:space="preserve" y="261.7041" clip-path="url(#clipPath2)" stroke="none">Turn</text>
      <rect fill="none" x="313" width="437" height="243.3765" y="244.6235" clip-path="url(#clipPath2)"/>
    </g>
    <g fill="rgb(255,204,0)" text-rendering="geometricPrecision" shape-rendering="geometricPrecision" transform="matrix(1,0,0,1,-298,-229)" stroke="rgb(255,204,0)">
      <rect x="368" y="325" clip-path="url(#clipPath2)" width="65" rx="4" ry="4" height="36" stroke="none"/>
    </g>
    <g text-rendering="geometricPrecision" stroke-miterlimit="1.45" shape-rendering="geometricPrecision" transform="matrix(1,0,0,1,-298,-229)" stroke-linecap="butt">
      <rect x="368" y="325" clip-path="url(#clipPath2)" fill="none" width="65" rx="4" ry="4" height="36"/>
      <text x="381.8232" xml:space="preserve" y="347.7139" clip-path="url(#clipPath2)" font-family="sans-serif" stroke="none">Deploy</text>
    </g>
    <g fill="rgb(255,204,0)" text-rendering="geometricPrecision" shape-rendering="geometricPrecision" transform="matrix(1,0,0,1,-298,-229)" stroke="rgb(255,204,0)">
      <rect x="513" y="325" clip-path="url(#clipPath2)" width="65" rx="4" ry="4" height="36" stroke="none"/>
    </g>
    <g text-rendering="geometricPrecision" stroke-miterlimit="1.45" shape-rendering="geometricPrecision" transform="matrix(1,0,0,1,-298,-229)" stroke-linecap="butt">
      <rect x="513" y="325" clip-path="url(#clipPath2)" fill="none" width="65" rx="4" ry="4" height="36"/>
      <text x="528.8271" xml:space="preserve" y="347.7139" clip-path="url(#clipPath2)" font-family="sans-serif" stroke="none">Attack</text>
    </g>
    <g fill="rgb(255,204,0)" text-rendering="geometricPrecision" shape-rendering="geometricPrecision" transform="matrix(1,0,0,1,-298,-229)" stroke="rgb(255,204,0)">
      <rect x="658" y="325" clip-path="url(#clipPath2)" width="65" rx="4" ry="4" height="36" stroke="none"/>
    </g>
    <g text-rendering="geometricPrecision" stroke-miterlimit="1.45" shape-rendering="geometricPrecision" transform="matrix(1,0,0,1,-298,-229)" stroke-linecap="butt">
      <rect x="658" y="325" clip-path="url(#clipPath2)" fill="none" width="65" rx="4" ry="4" height="36"/>
      <text x="669.834" xml:space="preserve" y="347.7139" clip-path="url(#clipPath2)" font-family="sans-serif" stroke="none">Commit</text>
      <path fill="none" d="M422.9175 325.0063 L423.0327 324.6353 L423.5 320 L423.0327 315.3647 L421.6925 311.0474 L419.572 307.1405 L416.7635 303.7365 L413.3595 300.928 L409.4526 298.8075 L405.1353 297.4673 L400.5 297 L395.8647 297.4673 L391.5474 298.8075 L387.6405 300.928 L384.2365 303.7365 L381.428 307.1405 L379.3075 311.0474 L377.9673 315.3647 L377.8013 317.0113 L377.8129 317.1106" clip-path="url(#clipPath2)"/>
      <path d="M378.0858 325.106 L382.6734 312.9423 L377.7787 316.1112 L372.6793 313.2836 Z" clip-path="url(#clipPath2)" stroke="none"/>
      <text x="325.8135" xml:space="preserve" y="312.7139" clip-path="url(#clipPath2)" font-family="sans-serif" stroke="none">reset deploys</text>
      <path fill="none" d="M422.0588 324.9945 L436.75 315.8125 L445.8125 311.8477 L454.875 309.0156 L463.9375 307.3164 L473 306.75 L482.0625 307.3164 L491.125 309.0156 L500.1875 311.8477 L509.25 315.8125 L517.1572 320.7545" clip-path="url(#clipPath2)"/>
      <path d="M523.9412 324.9945 L516.4152 314.3945 L516.3091 320.2245 L511.1152 322.8745 Z" clip-path="url(#clipPath2)" stroke="none"/>
      <text x="448.2428" xml:space="preserve" y="284.631" clip-path="url(#clipPath2)" font-family="sans-serif" stroke="none">next</text>
      <path fill="none" d="M523.9412 361.0055 L509.25 370.1875 L500.1875 374.1523 L491.125 376.9844 L482.0625 378.6836 L473 379.25 L463.9375 378.6836 L454.875 376.9844 L445.8125 374.1523 L436.75 370.1875 L428.8428 365.2455" clip-path="url(#clipPath2)"/>
      <path d="M422.0588 361.0055 L429.5848 371.6055 L429.6908 365.7755 L434.8848 363.1255 Z" clip-path="url(#clipPath2)" stroke="none"/>
      <text x="460.3213" xml:space="preserve" y="378.9639" clip-path="url(#clipPath2)" font-family="sans-serif" stroke="none">previous</text>
      <path fill="none" d="M567.0588 324.9945 L581.75 315.8125 L590.8125 311.8477 L599.875 309.0156 L608.9375 307.3164 L618 306.75 L627.0625 307.3164 L636.125 309.0156 L645.1875 311.8477 L654.25 315.8125 L662.1572 320.7545" clip-path="url(#clipPath2)"/>
      <path d="M668.9412 324.9945 L661.4152 314.3945 L661.3091 320.2245 L656.1152 322.8745 Z" clip-path="url(#clipPath2)" stroke="none"/>
      <text x="620.0756" xml:space="preserve" y="284.631" clip-path="url(#clipPath2)" font-family="sans-serif" stroke="none">next</text>
      <path fill="none" d="M668.9412 361.0055 L654.25 370.1875 L645.1875 374.1523 L636.125 376.9844 L627.0625 378.6836 L618 379.25 L608.9375 378.6836 L599.875 376.9844 L590.8125 374.1523 L581.75 370.1875 L573.8428 365.2455" clip-path="url(#clipPath2)"/>
      <path d="M567.0588 361.0055 L574.5848 371.6055 L574.6909 365.7755 L579.8848 363.1255 Z" clip-path="url(#clipPath2)" stroke="none"/>
      <text x="595.3213" xml:space="preserve" y="383.9639" clip-path="url(#clipPath2)" font-family="sans-serif" stroke="none">previous</text>
      <path fill="none" d="M690.5 360.9905 L690.5 464 L400.5 464 L400.5 368.9905" clip-path="url(#clipPath2)"/>
      <path d="M400.5 360.9905 L395.5 372.9905 L400.5 369.9905 L405.5 372.9905 Z" clip-path="url(#clipPath2)" stroke="none"/>
      <text x="503.8135" xml:space="preserve" y="468.7139" clip-path="url(#clipPath2)" font-family="sans-serif" stroke="none">reset all actions</text>
    </g>
  </g>
</svg>
